<?xml version="1.0" encoding="UTF-8" standalone="no"?>
<svg id="svg4892" xmlns:rdf="http://www.w3.org/1999/02/22-rdf-syntax-ns#" xmlns="http://www.w3.org/2000/svg" height="565.3mm" width="564.44mm" version="1.1" xmlns:cc="http://creativecommons.org/ns#" xmlns:dc="http://purl.org/dc/elements/1.1/" viewBox="0 0 1999.9972 2003.034">
<g id="layer1" transform="translate(4181.4 -929.4)">
<path id="path5838" d="m-2181.6 2014.3c1.0574-12.724-1.0812-29.781-8.2448-40.115-5.8449-8.4254-14.03-17.82-23.869-21.022-15.241-5.2777-30.884 3.3679-31.501 20.705 0.059 21.421 29.882 22.386 24.614 3.3861-0.3961-1.4381-1.4349-2.5498-2.3279-3.6986 0.5065 2.6671 0.3206 6.3103 0 8.9921-0.322 2.681-4.6367 6.188-8.9138 4.1213-15.193-7.6155-7.2652-36.15 16.033-27.694 10.767 4.1007 19.615 16.787 23.257 25.779 3.9008 9.519 3.0621 21.687 1.27 36.073-10.851 55.627-70.486 74.263-76.192 74.087 2.0212-5.5328 34.264-20.303 30.84-66.782-5.0526 19.492-6.786 68.886-81.872 69.879 13.226 8.8145 67.981 29.943 50.347 89.263-0.7442 2.3933-1.1246 4.9267-2.3845 7.1359 1.6584-0.9296 2.4987-2.714 3.3424-4.3309 16.664-38.351-2.3567-62.007-5.5808-70.922 4.3609 1.2785 34.811 26.104 43.503 57.656 7.3529 26.387-2.9258 81.57-39.412 87.569-22.126 3.4369-27.429-14.344-22.004-24.166 5.6681-9.4691 19.129-8.5323 18.203 0.4615-0.1713 2.3175-2.0457 5.031-2.6777 7.2148 1.6369-0.219 3.0464-2.53 3.9893-3.7477 8.2945-13.688-12.439-22.181-21.382-10.911-12.867 14.333-2.7411 37.194 18.966 37.757 23.074 0.7913 54.78-27.145 55.043-69.697 0.2717-50.915-42.423-79.713-52.305-88.022 3.0856-1.0228 14.637 2.2534 21.925 2.7506 5.1385 0.3007 9.6434-1.8088 9.7577-3.1486-2.7679-7.6512-15.792-7.6703-28.844-12.259 0.4995-0.6842 1.4005-0.6508 2.1411-0.8494 25.521-5.4635 50.667-17.711 67.3-38.684v0.01c8.6282-10.706 15.706-31.434 16.982-46.792m-249.49 583.11c13.244-14.723 22.25-43.482 16.864-61.97-9.6915-33.138-13.938-31.721-33.43-80.243-0.4658-1.1257-0.851-2.3142-1.6572-3.2548-6.3909 23.363 33.263 70.224 17.789 114.03-2.3922 6.9633-3.9576 8.1622-3.4008 10.019 4.2356-1.4588 13.119-20.471 14.697-22.726 0.5542 3.0662-3.6036 16.031-4.4189 19.056-1.5957 6.6554-7.0656 14.686-11.626 19.717-17.092 21.118-45.894 12.394-51.391 4.4445-3.9739-5.026-3.4493-14.083-1.7619-18.441 6.0904-13.409 23.672-5.1303 18.68 3.9448-0.6949 1.3774-2.216 2.3441-2.2335 4.0185 3.3474-2.3429 9.1161-4.0605 8.1679-10.481-0.9985-5.1703-7.2484-12.625-15.252-12.179-10.738 0.4133-20.819 13.525-18.078 26.126 2.864 15.388 28.834 29.312 51.765 19.733 5.4624-2.5181 11.23-7.288 15.285-11.795m-99.68 97.635c9.7454-8.2499 20.231-21.894 22.474-34.267 1.8246-10.091 2.6367-22.567-2.0563-31.789-7.0451-14.509-24.176-19.411-36.872-7.588-15.106 15.189 5.3004 36.959 15.01 19.799 0.7368-1.2969 0.7883-2.8176 0.9692-4.2613-1.5278 2.2441-4.2141 4.7121-6.3343 6.3845-2.1235 1.6681-7.6542 1.097-9.2173-3.3888-5.3577-16.128 20.382-30.746 30.877-8.2921 4.7139 10.513 2.0429 25.786-1.7407 34.72-3.9728 9.4892-12.194 16.569-23.523 25.615-46.612 32.239-103.24 3.7077-107.16-0.4513 5.3415-2.4831 39.518 9.5914 69.525-26.068-17.228 10.423-53.986 44.59-107.78-7.8013 3.1195 15.585 27.31 68.382-26.74 98.52-2.2041 1.1931-4.942 3.0731-7.395 3.7443 1.83 0.5154 3.686-0.1523 5.426-0.6989 38.902-15.335 42.082-45.672 46.106-54.255 2.1796 3.9877 6.2225 43.179-9.9417 71.636-13.459 23.858-59.632 55.83-89.673 34.272-18.075-13.215-8.6074-29.751 2.1352-32.992 10.67-2.818 18.926 7.782 11.912 13.486-1.7599 1.5176-4.9904 2.1389-6.9814 3.2361 1.3123 1.0027 3.9295 0.3373 5.4572 0.1429 15.544-3.8135 6.8887-24.48-7.4046-22.835-19.233 1.0364-27.47 24.19-12.328 39.754 15.961 16.682 58.491 19.458 88.398-10.813 35.754-36.25 25.043-85.854 23.93-98.716 2.905 1.4587 8.7564 11.943 13.558 17.448 3.4209 3.8461 8.098 5.5398 9.1262 4.6733 3.453-7.3674-5.7604-16.616-11.745-29.09 0.837-0.1307 1.4506 0.53 2.1147 0.9134 21.909 14.182 48.276 23.202 74.868 20.133h-0.01c13.671-1.469 33.254-11.219 45.016-21.176m-586.68 237.32c19.761-1.2904 45.016-15.072 54.281-31.954 16.579-30.285 12.556-32.41 33.084-80.503 0.4667-1.1254 1.0347-2.2381 1.1297-3.4732-21.039 12.001-26.108 73.394-68.026 93.429-6.6153 3.2322-7.3516 2.8783-8.2498 4.5963 4.0505 1.9136 22.506-5.1777 25.217-5.6569-1.7763 2.56-13.878 8.8499-16.593 10.412-5.8344 3.5778-14.023 5.269-20.801 5.6856-26.981 3.1804-42.57-23.495-40.836-33.003 0.7439-6.3638 7.5186-12.429 11.793-14.317 13.788-5.1753 20.365 13.079 10.418 15.967-1.4653 0.4826-3.2245 0.091-4.4209 1.2621 4.0237 0.7104 9.3157 3.5435 13.185-1.6669 2.9499-4.3619 3.802-14.053-2.1728-19.396-7.8851-7.3005-24.281-5.063-31.254 5.7856-8.8556 12.906-0.3402 41.052 22.648 50.494 5.643 2.0819 14.548 2.7335 20.597 2.3388v-0.0001m-140.98-1.001c12.725 1.0574 31.204-1.0953 41.449-8.3862 8.3524-5.9489 16.502-14.203 19.704-24.043 5.2777-15.241-3.3719-30.758-20.709-31.375-21.421 0.059-22.386 29.882-3.3862 24.614 1.4381-0.3961 2.5498-1.4349 3.6986-2.3279-2.6671 0.5065-5.3914 0.3682-8.0769 0.085-2.6848-0.2889-7.1063-4.6545-5.0396-8.9316 7.6155-15.192 36.863-7.4976 28.696 15.904-3.967 10.817-16.54 19.677-25.486 23.429-9.4701 4.0182-21.637 3.1139-36.045 1.4995-55.756-10.164-75.069-70.062-74.963-75.769 5.5571 1.9533 20.67 34.437 67.104 30.44-19.552-4.812-68.901-6.4314-70.815-81.5-8.6516 13.333-29.002 67.864-88.533 50.957-2.4022-0.7149-5.6759-1.2915-7.8851-2.5514 0.9296 1.6584 3.4649 2.7196 5.092 3.5435 38.552 16.194 61.335-2.9212 70.25-6.1452-1.2785 4.3609-26.161 35.054-57.712 43.746-26.387 7.3528-81.718-2.4506-87.716-38.936-3.437-22.126 14.971-27.182 24.859-21.878 9.5375 5.5522 7.8802 18.886-1.1136 17.959-2.3175-0.1713-4.1815-1.7363-6.3728-2.3417 0.239 1.6342 1.6881 2.7104 2.9057 3.6533 13.688 8.2945 22.181-12.439 10.911-21.382-14.333-12.867-36.55-2.26-36.848 19.452-0.51 23.082 27.666 54.911 70.218 54.653 50.914-0.3503 78.458-43.182 86.767-53.064 1.0227 3.0856-2.2535 14.637-2.7507 21.925-0.3007 5.1386 2.6998 9.8183 4.0409 9.9162 7.6167-2.8615 6.7896-16.012 11.378-29.064 0.6842 0.4995 0.6509 1.4005 0.8494 2.1412 5.4636 25.521 17.75 50.419 38.722 67.052h-0.01c10.706 8.6282 31.46 15.456 46.817 16.732m-583.27-245.57c14.886 13.061 43.522 21.985 61.942 16.373 33.016-10.099 30.986-14.821 79.508-34.313 1.1258-0.4657 2.4522-0.7524 3.3828-1.5702-23.44-6.1037-69.504 33.728-113.5 18.797-6.9922-2.3061-8.1633-3.911-10.013-3.3313 1.511 4.2173 19.615 12.204 21.871 13.782-3.0661 0.5542-15.086-2.7185-18.121-3.4964-6.6746-1.5134-14.677-6.9919-19.764-11.49-21.328-16.83-12.812-45.896-4.9319-51.491 4.9763-4.0358 13.989-3.5707 18.368-1.9373 13.484 5.9238 5.3736 23.66-3.7625 18.781-1.3859-0.6778-3.0588-2.861-4.7332-2.8785 2.3428 3.3475 4.1027 9.0694 10.523 8.1211 5.1702-0.9984 12.625-7.2483 12.179-15.252-0.4134-10.738-13.654-20.68-26.255-17.939-15.388 2.864-29.226 28.742-19.646 51.673 2.518 5.4624 8.3958 12.173 12.952 16.171m-98.297-99.028c8.3697 9.6427 21.984 20.107 34.384 22.196 10.112 1.6996 21.734 1.6034 30.956-3.0896 14.509-7.0451 19.914-23.775 7.9356-36.323-15.375-14.916-37.399 4.8381-20.238 14.548 1.297 0.7369 3.4543 1.4597 4.9001 1.6227-2.2628-1.4999-4.7113-4.2054-6.4098-6.3047-1.6943-2.1028-1.1915-7.6401 3.2745-9.2585 16.06-5.5569 30.891 20.1 8.569 30.873-10.454 4.8439-25.655 2.2612-34.634-1.4116-9.5377-3.8551-17.573-13.035-26.619-24.364-32.239-46.612-3.7137-102.49 0.397-106.45 2.5484 5.3106-9.5852 38.852 26.074 68.859-10.423-17.228-44.347-53.135 7.3808-107.57-15.546 3.3104-68.68 27.596-98.819-26.454-1.1931-2.2041-3.1273-4.9113-3.7985-7.3644-0.5154 1.83 0.5541 4.3578 1.1219 6.0909 15.81 38.711 45.828 41.744 54.46 45.663-3.9606 2.2283-42.865 6.598-71.517-9.2171-24.02-13.166-56.066-59.214-34.876-89.516 12.994-18.235 29.388-9.5951 32.629 1.1475 2.818 10.67-7.2884 19.667-13.078 12.722-1.5389-1.7412-2.1376-4.9953-3.259-6.9728-0.9866 1.3245-0.7229 3.1102-0.5286 4.6379 3.8135 15.544 24.952 7.4417 23.133-6.8306-1.2711-19.219-24.601-27.99-40.165-12.848-16.682 15.961-19.071 58.291 11.2 88.197 36.25 35.754 86.171 24.845 99.034 23.732-1.4586 2.9051-11.943 8.7565-17.448 13.558-3.8461 3.4209-5.0077 8.834-4.1286 9.8515 7.4091 3.3624 16.123-6.5209 28.597-12.506 0.1306 0.837-0.5301 1.4505-0.9134 2.1146-14.182 21.909-22.518 49.187-19.122 75.738v-0.01c1.6372 13.652 11.411 33.3 21.512 44.938m-241.23-586.58c1.2905 19.761 15.385 46.305 32.379 55.361 30.487 16.205 32.282 12.198 80.623 32.134 1.131 0.4528 2.2506 1.0071 3.4868 1.0869-12.258-20.89-73.214-25.268-93.765-66.935-3.3136-6.5749-3.0382-8.5351-4.7562-9.4333-1.9137 4.0505 5.3029 22.494 5.7821 25.205-2.56-1.7762-8.7765-12.587-10.372-15.283-3.6495-5.7899-5.4971-15.317-5.9136-22.095-3.1805-26.981 23.299-41.509 32.828-39.892 6.3725 0.665 12.448 7.3661 14.39 11.617 5.3456 13.723-12.898 20.528-15.909 10.618-0.5007-1.4593-0.1714-4.1844-1.343-5.3808-0.7104 4.0237-3.4804 9.3125 1.7299 13.182 4.3619 2.9499 14.053 3.8019 19.396-2.1728 7.3006-7.8851 5.0051-23.629-5.929-30.467-13.015-8.6951-40.972-1.1238-50.413 21.865-2.0819 5.6429-2.6077 14.54-2.213 20.59h0.0001m0.1699-139.53c-0.9002 12.737 1.4213 29.768 8.7123 40.013 5.9488 8.3523 14.23 17.646 24.108 20.727 15.305 5.0882 30.859-3.7516 31.261-21.095-0.324-21.419-30.157-22.014-24.654-3.0812 0.4139 1.4331 1.4663 2.5319 2.3735 3.6695-0.5395-2.6606-0.3893-6.3062-0.1059-8.9917 0.2889-2.6849 4.5598-6.245 8.8622-4.2314 15.286 7.427 7.6932 36.059-15.708 27.891-10.817-3.9669-19.803-16.544-23.555-25.49-4.0183-9.47-3.3026-21.649-1.6883-36.056 10.164-55.756 69.626-75.123 75.334-75.017-1.9532 5.5572-34.064 20.719-30.067 67.152 4.812-19.552 5.9965-68.96 81.065-70.874-13.333-8.6516-68.29-29.099-51.383-88.629 0.715-2.4022 1.0644-4.9401 2.2973-7.1645-1.647 0.9498-2.4655 2.7444-3.2894 4.3714-16.194 38.552 3.0696 61.965 6.4027 70.84-4.3763-1.2249-35.098-25.671-44.175-57.114-7.6749-26.295 1.9876-81.586 38.398-88.029 22.082-3.7066 27.595 14.006 22.29 23.894-5.5522 9.5375-19.031 8.7628-18.214-0.2416 0.143-2.3194 1.9912-5.0535 2.5965-7.2448-1.6341 0.2389-2.7104 1.688-3.6532 2.9058-8.2945 13.688 12.411 22.916 21.217 11.537 12.691-14.489 2.3082-37.218-19.404-37.516-23.082-0.5099-54.496 27.798-54.238 70.35 0.3503 50.914 43.547 78.542 53.429 86.851-3.0856 1.0227-14.768-1.5586-22.062-1.9664-5.1418-0.2377-9.6205 1.927-9.7184 3.2681 2.8615 7.6166 15.877 7.4751 28.984 11.903-0.4911 0.6903-1.3925 0.6681-2.1306 0.8756-25.452 5.7764-50.479 18.33-66.852 39.506v-0.01c-8.4958 10.811-15.353 31.627-16.439 46.998m102.69-376.09c-5.6938 11.429-10.009 28.008-7.1871 40.262 2.3049 9.9919 6.4405 21.719 14.389 28.344 12.194 10.557 29.917 8.3504 36.918-7.5222 7.887-19.917-19.453-31.869-21.604-12.27-0.1653 1.4825 0.3874 2.9001 0.7908 4.2981 0.5184-2.6649 2.0367-5.9673 3.3245-8.3408 1.2927-2.3709 6.5997-4.0292 9.8065-0.5248 11.289 12.703-6.6464 36.247-25.146 19.752-8.4782-7.8018-12.006-22.832-12.056-32.533-0.096-10.287 5.1808-21.228 12.171-33.929 30.67-47.659 92.991-42.853 98.228-40.581-3.9231 4.3939-39.374 6.1441-53.392 50.591 11.907-16.238 31.828-61.429 101.97-34.6-9.0319-13.079-52.033-52.922-13.711-101.51 1.5766-1.9483 2.867-4.1615 4.8546-5.748-1.8846 0.2503-3.3253 1.5975-4.7072 2.7876-29.666 29.469-20.799 58.458-21.098 67.933-3.5796-2.7996-22.654-37.103-19.066-69.633 2.9232-27.236 33.007-74.746 69.118-66.796 21.824 5.0066 20.153 23.492 11.475 30.606-8.7724 6.6959-20.938 0.8464-16.747-7.1651 1.0173-2.0893 3.7738-3.9216 5.1698-5.7159-1.6016-0.4029-3.7777 1.2276-5.1044 2.0096-12.773 9.6436 3.3416 25.21 15.823 18.052 17.259-8.5496 16.351-33.547-3.5995-42.118-21.137-9.2894-61.04 4.9777-77.021 44.416-19.083 47.204 10.305 89.214 16.277 100.66-3.2426-0.2298-13.064-7.0699-19.652-10.226-4.6636-2.1786-9.6292-1.8833-10.231-0.6807-0.2559 8.1324 11.829 12.956 22.261 22.044-0.7171 0.4511-1.542 0.087-2.3035 0-25.733-4.3561-53.651-2.3114-76.861 11.023l0.01-0.01c-11.976 6.7556-26.221 23.333-33.093 37.126m448.05-449.23c-17.772 8.7359-36.73 32.127-38.625 51.29-3.3615 34.362 1.1759 34.713 1.1597 87.004 0.012 1.2182-0.074 2.4645 0.3234 3.638 14.645-19.293-4.792-77.683 25.886-112.57 4.8138-5.5711 5.63-5.5349 5.7811-7.4676-4.4766-0.1687-18.65 13.574-20.955 15.079 0.6286-3.0518 9.2738-13.561 11.157-16.065 3.96-5.5822 10.816-10.338 16.885-13.384 23.561-13.527 48.343 4.944 50.492 14.367 1.8211 6.1428-2.0159 14.362-5.203 17.78-10.64 10.183-23.864-4.0354-15.855-10.602 1.1575-1.0199 2.9291-1.3514 3.5684-2.899-3.9788 0.9293-9.9519 0.3865-11.462 6.6984-0.9976 5.1704 2.0285 14.416 9.6228 16.98 10.12 3.6131 24.309-4.8375 26.449-17.555 3.0606-15.35-15.823-37.916-40.672-37.556-6.0071 0.3051-13.11 2.5926-18.55 5.2663m128.55-53.621c-12.107 4.055-26.851 12.815-33.52 23.475-5.4356 8.6952-10.78 19.97-9.8448 30.275 1.1579 16.087 15.227 27.002 31.401 20.728 19.66-8.5061 8.7787-36.29-6.6011-23.952-1.1652 0.9314-1.7768 2.3245-2.48 3.5983 2.2509-1.5177 5.6495-2.8088 8.2385-3.5764 2.5904-0.7625 7.5158 1.8175 7.3053 6.5631-1.0001 16.965-30.917 21.334-32.636-3.3917-0.6186-11.505 8.5421-25.056 15.367-31.951 7.2064-7.3416 18.643-11.435 32.567-15.474 55.387-12.013 95.999 35.243 98.095 40.552-5.881 0.3329-32.137-23.317-73.478-1.7999 19.901-3.0631 65.886-21.142 96.51 47.423 2.8615-15.634 0.5916-74.43 62.049-81.692 2.4925-0.26286 4.9698-0.91534 7.4972-0.63173-1.5097-1.1556-3.4816-1.2217-5.3003-1.3573-41.815-0.13918-56.011 26.814-62.922 33.303-0.5515-4.5109 10.194-42.378 35.733-62.842 21.326-17.192 76.166-29.763 96.08 1.3919 11.892 18.972-3.0482 30.816-14.227 29.849-10.955-1.3331-14.7-14.237-6.0711-16.938 2.1968-0.75805 5.4391-0.13588 7.695-0.41757-0.8476-1.4174-3.5368-1.7718-5.028-2.1569-15.851-2.2129-15.463 20.189-1.5761 23.953 18.25 6.1587 34.494-12.287 26.198-32.354-8.6429-21.409-45.631-39.49-84.818-22.904-46.872 19.885-56.426 70.637-60.147 83.001-2.1603-2.4291-3.7231-14.334-6.1503-21.224-1.7572-4.8382-5.4769-8.1406-6.7527-7.7155-5.9311 5.5695-0.7903 17.556 0.1604 31.359-0.8261-0.188-1.1519-1.0287-1.6273-1.6303-15.116-21.276-36.271-39.451-62.112-46.434h0.011c-13.246-3.691-35.003-1.9231-49.616 2.971v0.00003m633.1-2.8896c-18.821-6.1606-47.364-2.6805-62.254 9.5297-26.675 21.921-23.745 25.498-60.732 62.462-0.8527 0.87-1.7947 1.6905-2.3437 2.8011 23.998-3.2862 50.505-58.292 96.829-61.837 7.3361-0.62509 9.0279 0.39496 10.501-0.86482-3.0461-3.2847-22.804-3.5298-25.498-4.0954 2.6024-1.7135 14.928-3.4193 18.025-3.8956 6.7328-1.2293 16.209 0.67434 22.655 2.8114 26.226 7.0949 29.766 37.184 24.722 45.428-2.9871 5.6682-11.44 8.7761-16.108 8.9963-14.727-0.1438-13.322-19.455-3.015-18.435 1.5397 0.097 3.0261 1.1154 4.5725 0.473-3.4705-2.1563-7.3208-6.7344-12.851-3.3386-4.3614 2.9505-8.7593 11.628-5.2027 18.811 4.6013 9.7109 20.641 13.68 31.147 6.2009 13.018-8.6898 15.602-37.94-2.2239-55.257-4.4634-4.0319-12.461-7.9037-18.222-9.7897m130.32 53.093c-11.428-5.6938-29.316-10.514-41.535-7.5432-9.963 2.4265-20.576 7.0791-27.202 15.028-10.557 12.194-8.3005 29.804 7.5721 36.804 19.916 7.887 31.869-19.453 12.27-21.604-1.4825-0.1654-2.9001 0.3873-4.2981 0.7907 2.6649 0.5184 5.1438 1.6569 7.5329 2.9157 2.3864 1.2637 4.8632 6.9521 1.3587 10.159-12.703 11.289-36.984-6.6908-20.716-25.39 7.6979-8.5726 22.628-12.156 32.328-12.325 10.285-0.2209 21.2 5.1098 33.985 11.944 48.03 30.086 43.749 92.888 41.541 98.152-4.4416-3.8691-6.4197-39.661-51.034-53.134 16.382 11.707 62.355 31.786 35.527 101.92 13.079-9.0319 52.073-52.234 101.13-14.513 1.9675 1.5525 4.7941 3.3102 6.3807 5.2979-0.2504-1.8846-1.5977-3.3255-2.7879-4.7074-29.469-29.666-58.676-20.492-68.151-20.791 2.7997-3.5797 37.246-22.86 69.775-19.272 27.236 2.9233 75.062 32.617 67.113 68.728-5.0068 21.824-23.987 19.682-31.208 11.094-6.8037-8.6891-0.3274-20.461 7.6841-16.27 2.0894 1.0173 3.2414 3.1612 5.0528 4.5349 0.3831-1.6065-0.5644-3.1427-1.3464-4.4695-9.6436-12.773-25.21 3.3415-18.053 15.823 8.5496 17.259 33.122 15.656 41.445-4.3997 9.0272-21.25-5.407-61.357-45.039-76.852-47.435-18.5-88.836 11.054-100.21 17.165 0.1901-3.2451 7.5035-12.768 10.659-19.356 2.1786-4.6636 1.8832-9.6292 0.6806-10.231-8.1322-0.2558-12.989 11.882-22.077 22.314-0.4512-0.717-0.087-1.5419 0-2.3035 4.3561-25.733 2.1847-53.437-11.15-76.646l0.01 0.01c-6.7562-11.976-23.449-26.001-37.242-32.873v0.0002m450.84 444.49c-8.9521-17.664-32.268-36.505-51.453-38.166-34.4-2.9413-34.459 1.45-86.746 2.0743-1.2179 0.027-2.4652-0.043-3.6338 0.368 19.47 14.408 77.201-5.489 112.46 24.761 5.6294 4.7454 6.1322 6.6489 8.0649 6.8 0.1686-4.4766-13.684-18.591-15.189-20.896 3.0518 0.6286 13.001 8.1233 15.528 9.9761 5.63 3.8915 11.04 11.91 14.086 17.978 13.527 23.561-5.1611 47.3-14.557 49.563-6.1202 1.8959-14.323-1.8704-17.78-5.0156-10.312-10.515 3.8066-23.942 10.47-16.013 1.034 1.145 1.7841 3.7738 3.3317 4.4131-0.9292-3.9788-0.4423-9.9246-6.7543-11.434-5.1704-0.9977-14.416 2.0284-16.98 9.6228-3.613 10.12 4.6541 23.689 17.397 25.674 15.386 2.8732 38.13-15.075 37.77-39.925-0.3051-6.0071-3.2781-14.372-6.018-19.779m54.949 129.55c-4.0551-12.107-13.412-28.122-24.152-34.661-8.7608-5.3291-19.584-9.5326-29.89-8.597-16.087 1.158-27.317 14.677-20.847 30.773 8.7452 19.555 36.525 9.3625 24.187-6.0172-0.9314-1.1652-2.6629-2.6227-3.9452-3.3104 1.5451 2.2323 2.8123 5.6388 3.6115 8.2182 0.7939 2.581-1.7258 7.5375-6.4736 7.3849-16.976-0.7932-21.228-30.101 3.4978-31.821 11.505-0.6186 24.654 7.3824 31.632 14.122 7.4288 7.1163 11.465 18.572 15.673 32.445 12.688 55.236-34.537 96.556-39.821 98.716-0.4048-5.8765 23.325-32.532 1.3055-73.607 3.3057 19.862 21.473 65.752-46.712 97.213 15.668 2.6699 73.944-0.2329 81.961 61.131 0.2935 2.489 1.0803 5.726 0.7966 8.2534 1.1557-1.5096 1.1061-4.2609 1.2192-6.0812-0.3751-41.814-27.082-55.75-33.655-62.582 4.5037-0.6067 42.222 9.726 62.999 35.012 17.452 21.113 30.13 75.852-0.7766 96.15-18.824 12.125-30.847-1.9822-29.88-13.161 1.3331-10.955 14.237-14.7 16.938-6.0711 0.758 2.1967 0.057 4.5273 0.3662 6.7795 1.4068-0.865 1.8231-2.6213 2.2083-4.1125 2.2129-15.851-20.42-16.16-24.013-2.2283-5.9331 18.324 12.473 35.138 32.539 26.842 21.409-8.6429 39.344-47.188 22.276-86.168-20.46-46.624-70.817-54.967-83.18-58.687 2.429-2.1602 14.334-3.7224 21.224-6.1497 4.8383-1.7568 7.9305-6.3584 7.4898-7.6288-5.6416-5.8626-17.391 0.1-31.194 1.0506 0.188-0.826 1.0287-1.1519 1.6303-1.6273 21.276-15.116 39.162-37.365 45.829-63.289v0.011c3.5289-13.29 2.0488-33.69-2.8454-48.302m-39.897 750.02c5.7927-12.726 7.8496-31.429-2.3934-44.171-23.135-27.166-51.376-10.743-48.79 9.3975 1.6886 12.062 23.69 17.26 23.512 4.6962-0.018-1.5685 0.6717-4.1978-0.4023-5.5078-0.8101 1.6689-2.1354 8.7497-7.5841 7.9404-4.1526-0.5147-10.583-5.3513-8.8754-12.05 2.8016-8.2269 18.281-19.492 33.054-4.5249 24.651 25.94-6.353 64.628-24.622 70.346 0.2492-0.352 13.664-14.412 15.166-20.909-1.5437-0.7372-3.1391 2.0554-4.0567 3.0025-11.982 12.17-28.497 25.17-68.691 25.842-24.726 0.3474-31.18-1.1472-49.361 7.5144 4.6366-0.3002 16.564-3.1665 45.001-0.7624 44.389 3.5947 57.212-1.5821 75.624-13.338 8.2692-5.2917 17.913-17.577 22.418-27.476m-143.04 41.576h-0.01 0.01m-420.67 475.63c13.095-4.9029 27.741-16.76 29.508-33.013 2.8503-35.568-28.709-43.867-41.122-27.796-7.3349 9.7229 4.5472 28.956 13.305 19.946 1.0962-1.1221 3.4321-2.5224 3.599-4.2081-1.753 0.6072-7.6858 4.706-10.966 0.2809-2.5724-3.3002-2.973-11.475 2.9284-15.077 7.7509-3.9311 26.004-0.6341 25.866 20.395-0.9113 35.773-50.127 41.382-67.089 32.507 0.4251-0.073 19.833-0.588 25.488-4.1201-0.5702-1.6128-2.533-1.1625-3.8513-1.1255-17.075 0.3408-39.042-1.8244-67.938-29.77-17.73-17.238-21.212-22.768-40.193-29.5 3.4908 3.0663 13.936 9.413 32.344 31.221 28.846 33.93 41.538 39.217 62.87 43.924 9.589 2.1055 25.065 0.1488 35.25-3.6645m-130.46-71.481s-0.01 0-0.01-0.01h0.01s0.0003-0.0001 0.0003-0.0001m-633.94 40.546c12.726 5.7927 32.734 8.2746 45.35-2.123 26.882-23.464 9.5898-51.703-10.55-49.116-12.062 1.6886-16.357 24.216-3.7964 23.885 1.5683-0.037 3.3232 0.2421 4.6332-0.8318-1.6689-0.8102-8.7749-2.0786-7.9656-7.5273 0.5146-4.1526 6.0245-10.245 12.744-8.6186 8.2604 2.7009 18.848 17.91 3.8809 32.683-25.94 24.651-64.785-6.0148-70.504-24.284 0.352 0.2492 14.468 13.553 20.964 15.054 0.7372-1.5437-0.9692-2.6132-1.9275-3.5192-12.315-11.833-26.388-28.758-27.06-68.952-0.3474-24.726 1.0531-31.018-7.6085-49.199 0.3001 4.6366 3.2299 16.456 0.8258 44.894-3.5947 44.389 2.6707 57.736 14.65 76.004 5.3922 8.2041 16.465 17.147 26.364 21.652m-41.84-142.55v-0.01 0.01l0.0004 0.0001m-477.73-417.18c5.0622 13.034 16.904 27.611 33.177 29.18 35.6 2.4165 43.254-29.744 27.184-42.156-9.7228-7.3349-28.66 5.5463-19.545 14.194 1.1354 1.0824 2.1787 2.521 3.8644 2.6879-0.6072-1.753-4.764-7.6634-0.3389-10.944 3.3002-2.5725 11.533-2.9954 15.135 2.9059 3.9311 7.7509 1.1106 26.726-19.918 26.845-35.782-0.4751-42.151-51.001-33.276-67.963 0.073 0.4251 0.7058 19.794 4.2379 25.449 1.6128-0.5702 1.1625-2.5331 1.1255-3.8514-0.3408-17.075 1.5279-38.947 29.474-67.844 17.238-17.73 22.863-20.957 29.362-40.018-3.0234 3.528-9.3768 14.086-30.959 32.76-33.575 29.258-38.973 42.095-43.42 63.483-1.9883 9.614-0.04 25.134 3.8976 35.272m70.481-131.52s0-0.01 0.01-0.01v0.01h0.0002m182.46-950.25c-10.11 9.6596-18.997 26.334-14.217 41.968 11.395 33.814 43.714 29.022 48.799 9.3632 2.9156-11.825-15.578-24.828-20.082-13.099-0.5661 1.463-2.188 3.6668-1.6775 5.282 1.3722-1.2485 5.2385-7.3486 9.9958-4.5718 3.6639 2.0212 7.8362 8.9015 3.7605 14.486-5.6586 6.5962-24.219 11.34-32.378-8.0415-13.258-33.238 29.952-57.773 49.037-56.277-0.3623 0.2339-18.049 8.3384-21.859 13.81 1.1585 1.2586 2.786 0.073 3.9836-0.4797 15.565-7.0285 36.702-13.668 74.25 0.6885 23.074 8.8935 28.463 12.623 48.563 11.367-4.4141-1.4506-16.521-3.1966-42.012-16.029-39.849-19.884-53.655-19.759-75.121-15.704-9.645 1.832-23.178 9.7249-31.042 17.238m148.17 14.495h0.01s-0.01 0-0.01-0.0001m567.13-285.8c-13.979-0.31842-32.054 5.2828-39.729 19.718-15.853 31.967 10.39 51.369 27.886 41.064 10.423-6.3 5.4855-28.722-5.9292-23.471-1.4267 0.652-3.1498 1.0861-3.9309 2.5892 1.8531 0.0874 8.9005-1.5237 10.301 3.8037 1.1615 4.0199-1.5176 11.768-8.3346 12.919-8.6565 0.77036-24.394-9.0599-16.458-28.534 14.128-32.878 62.038-19.861 74.475-5.3093-0.4216-0.0908-18.663-6.8033-25.226-5.6288-0.071 1.7092 1.919 2.0214 3.1564 2.4776 15.976 6.0364 35.628 16.13 52.027 52.832 10.028 22.604 11.214 28.959 26.314 42.284-2.0955-4.147-9.4308-13.88-18.382-40.979-14.117-42.238-23.98-51.786-42.026-64.098-8.1154-5.5246-23.27-9.4183-34.143-9.666m94.551 114.74l0.01 0.01s-0.01 0-0.01-0.01m603.89 197.44c-9.6595-10.11-27.41-19.887-42.984-14.914-33.67 11.813-28.052 44.454-8.3931 49.539 11.825 2.9155 24.166-16.408 12.382-20.767-1.4699-0.5478-2.9955-1.4594-4.6107-0.9489 1.2485 1.3722 7.3938 5.1944 4.6173 9.9519-2.0212 3.6638-9.4172 7.2695-15.052 3.2634-6.6658-5.5763-10.865-23.633 8.5171-31.792 33.238-13.258 58.049 29.693 56.554 48.778-0.234-0.3623-8.4326-17.965-13.904-21.775-1.2587 1.1585-0.073 2.786 0.4796 3.9836 7.0285 15.565 13.907 36.496-0.45 74.044-8.8935 23.074-12.807 28.261-11.304 48.344 1.396-4.4319 3.1047-16.648 15.622-42.295 19.392-40.091 19.312-54.084 14.993-75.498-1.9511-9.6215-8.954-22.051-16.467-29.914m-14.148 147.71v0.01s0-0.01 0.0001-0.01m118.17 1087.9c-0.7634-1.1367-2.0962-1.7476-2.7652-2.9628-11.73-18.54-5.5144-26.555-34.289-48.404 5.2258-1.7768 14.678 2.4929 18.256 3.9022 0.744-4.7488-5.0151-28.745-27.588-31.598-14.37-1.5129-32.533 8.9992-37.76 15.765 0.084 0.9432-0.015 2.0611 0.845 2.7013 13.723 11.613 39.153 26.173 35.801 31.98-10.136 0.3-34.355-22.542-44.754-22.538-6.8488 16.889-5.9954 40.453 8.812 50.631 11.011 8.2343 20.812 5.0384 33.46 2.9065-3.1728-2.3495-8.4269-4.8582-12.762-13.813 0.08-0.1438 0.2448-0.4276 0.3273-0.5694 31.816 18.152 36.354 7.4837 61.781 12.948 0.212-0.3222 0.4234-0.637 0.6356-0.9476m-626.82 427.6c0.264-1.3436-0.2464-2.7179 0.1398-4.0502 4.8155-21.404 14.864-22.737 9.9678-58.534 4.9516 2.4388 8.6091 12.112 10.142 15.638 3.884-2.8319 16.772-23.902 2.8275-41.881-9.0914-11.231-29.346-16.55-37.826-15.462-0.6079 0.7259-1.4681 1.4468-1.3128 2.5076 1.4924 17.915 9.1845 46.223 2.7084 47.959-7.3797-6.9554-8.2099-40.318-15.656-47.578-16.697 7.3044-32.876 24.484-29.602 42.151 1.9632 13.608 11.143 18.217 21.595 25.654-0.5821-3.9048-2.5234-9.3941 0.7435-18.791 0.1581-0.045 0.4754-0.1294 0.6341-0.1713 9.6622 35.333 20.403 30.937 34.518 52.78 0.3777-0.078 0.7499-0.151 1.1195-0.2206m-744.83-138.23c1.1272-0.7773 1.7217-2.1174 2.9287-2.8012 18.395-11.956 26.41-5.7208 47.906-34.76 1.8407 5.2037-2.9901 14.308-4.3994 17.885 4.7488 0.744 28.777-5.0685 31.63-27.642 1.5128-14.37-9.0973-32.374-15.863-37.6-0.9432 0.084-2.0611-0.015-2.7014 0.845-11.612 13.723-26.207 39.205-32.014 35.853-0.3-10.136 22.704-34.314 22.573-44.713-16.971-6.6413-40.404-5.6733-50.399 9.258-8.0984 11.111-5.3748 20.428-3.2429 33.077 2.3495-3.1727 4.8582-8.427 13.813-12.762 0.1438 0.08 0.4276 0.2448 0.5694 0.3273-18.152 31.816-7.4138 36.251-12.878 61.677 0.3222 0.212 1.7644 1.1471 2.0776 1.3554m-431.64-624.05c1.3467 0.2475 2.7147-0.2797 4.0516 0.09 21.462 4.5531 22.781 14.615 58.515 9.2812-2.378 4.9811-12.232 8.0027-15.758 9.5359 2.8318 3.884 23.962 16.757 41.941 2.8123 11.231-9.0913 16.368-29.303 15.28-37.782-0.726-0.6078-1.4469-1.468-2.5076-1.3126-17.915 1.4924-46.052 9.8188-47.867 3.3645 6.8645-7.4643 40.165-8.853 47.426-16.299-7.3044-16.697-24.65-32.564-42.276-29.074-13.583 2.1301-18.215 10.639-25.651 21.09 3.9048-0.5822 9.4877-1.7968 18.924 1.3546 0.047 0.1575 0.1351 0.4738 0.179 0.6319-35.212 10.095-30.823 20.808-52.491 35.19 0.083 0.3767 0.1603 0.7479 0.2344 1.1167m402.1-1026c0.2843 1.3394 1.293 2.4034 1.4603 3.7804 3.9664 21.578-4.7625 26.743 13.785 57.749-5.5115-0.3007-12.676-7.7643-15.47-10.406-2.4615 4.1287-6.0539 28.565 13.827 39.629 12.769 6.7621 33.496 3.7176 40.869-0.6097 0.2744-0.9062 0.7828-1.9068 0.2238-2.8215-8.4004-15.894-26.578-38.913-21.301-43.05 9.5165 3.5033 23.367 33.866 33.064 37.624 12.493-13.268 20.643-35.405 10.701-50.371-7.1445-11.747-17.398-12.394-29.928-15.134 2.0672 3.3635 6.0062 7.6512 6.6871 17.577-0.1276 0.1037-0.3868 0.3056-0.5163 0.4064-22.747-28.711-30.907-20.46-52.459-35.016-0.3168 0.2198-0.6309 0.4333-0.9435 0.6423m739.4-164.81c-0.7319 1.1572-0.753 2.6231-1.5949 3.7256-12.231 18.214-22.057 15.613-30.435 50.758-3.7348-4.0642-2.8635-14.334-2.9709-18.177-4.66 1.179-24.482 15.949-18.248 37.831 4.2477 13.811 21.071 26.221 29.344 28.375 0.8348-0.4468 1.9019-0.7947 2.1534-1.8369 5.2985-17.178 8.7273-46.34 15.383-45.534 4.252 9.2064-7.424 40.47-3.2245 49.984 18.216-0.5481 39.389-10.62 42.726-28.275 3.0908-13.397-3.0675-20.902-9.99-31.701-0.9166 3.8401-1.1642 9.6571-7.7011 17.157-0.1635-0.017-0.4892-0.057-0.652-0.078 4.217-36.387-7.3989-36.261-12.346-61.792-0.3794-0.0686-2.0742-0.36688-2.4439-0.43567m641.73 404.89c-1.3358 0.3006-2.3875 1.322-3.7624 1.5062-21.528 4.2309-26.686-4.5186-57.462 14.409 0.233-5.5147 8.1107-12.16 10.753-14.954-4.1288-2.4615-28.615-6.0156-39.679 13.865-6.7621 12.769-3.5665 33.385 0.7608 40.758 0.9062 0.2744 1.9068 0.7828 2.8215 0.2238 15.894-8.4004 38.509-27.097 42.71-21.872-3.3862 9.5588-33.475 23.901-37.234 33.599 13.268 12.493 35.44 20.29 50.283 10.165 11.659-7.2876 12.585-16.932 15.326-29.463-3.3635 2.0672-8.0193 5.373-17.936 6.1755-0.1052-0.1263-0.31-0.3827-0.4124-0.511 28.43-23.098 20.195-31.237 34.484-52.966-0.2236-0.3141-0.4408-0.6252-0.6536-0.9352m155.08 761.57c2.2029-11.51-13.927-18.583-20.411-8.2419-4.2191 6.7492-0.7995 18.483 8.6166 18.691 4.4695 0.1377 9.2556-4.1266 9.6468-5.2819 1.1446-1.7877 1.8331-3.5226 2.1478-5.167m-412.87 627.32c9.6968-6.5814 4.0312-23.69-7.8322-20.817-7.7332 1.8841-14.39 13.086-7.879 19.891 3.0631 3.2578 9.4453 3.6007 10.539 3.0604 2.0734-0.4547 3.787-1.1946 5.1723-2.1348m-733.94 153.77c11.537 2.0617 18.411-14.154 7.9911-20.511-6.8005-4.136-19.44-0.8609-19.648 8.5552-0.1377 4.4695 4.1389 9.1943 5.2942 9.5855 1.7876 1.1446 4.7151 2.0755 6.3631 2.37m-629.96-408.85c6.6998 9.6153 23.027 3.0105 20.154-8.8529-1.8841-7.7332-12.638-13.503-19.363-6.9089-3.22 3.1028-4.1803 8.5106-3.64 9.6042 0.4547 2.0733 1.8923 4.7839 2.8494 6.1576m-158.25-734.14c-2.0616 11.536 14.154 18.411 20.511 7.991 4.136-6.8005 0.5807-18.49-8.8372-18.583-4.4709-0.083-8.9738 3.062-9.365 4.2173-1.1446 1.7876-2.0141 4.7266-2.3086 6.3747m140.04-356.08c-6.3011 9.8812 6.0724 22.415 15.92 15.202 6.4147-4.7121 7.5839-16.871-1.0886-20.545-4.1022-1.7798-9.4636-0.5875-10.265 0.3317-1.7393 1.2168-3.6657 3.5993-4.5659 5.0109m615.95-429.66c-11.443 2.5315-12.503 20.51-0.4178 22.225 7.8819 1.1076 18.211-6.8163 14.676-15.546-1.6421-4.1592-7.4471-6.849-8.663-6.7512-2.0946-0.34379-3.9606-0.28953-5.595 0.0721m739.7 129.8c-9.8812-6.3011-23.359 5.6888-16.027 15.447 4.7902 6.3566 17.73 8.0043 21.404-0.6681 1.7798-4.1022-0.4402-10.083-1.3692-10.874-1.238-1.7242-2.5961-3.0055-4.0075-3.9055m432.58 612.53c-2.6714-11.411-20.283-11.308-21.999 0.7767-1.1076 7.882 6.7403 17.219 15.426 13.577 4.1388-1.6929 7.0298-6.3631 6.9319-7.5789 0.3438-2.0946 0.022-5.1453-0.3593-6.7752m-231.28 829.36c1.545-1.8283 2.9263-4.0614 4.0766-6.7474 10.918-24.687-5.081-44.663-8.9896-62.846-5.1146-22.941 9.1287-42.526 9.0284-44.762-4.7643 1.4192-9.3083 3.3662-13.75 5.5751-0.7503 0.387-1.5484 0.7169-2.4102 0.7083 1.7799-3.2253 8.1926-8.9879 9.1541-10.824-0.4863-0.4311-1.0122-0.8269-1.6305-1.0395-16.262-5.115-31.057 1.8653-40.228 14.509-10.393 14.329-12.438 33.674 1.9666 49.805 2.1571 2.7886 4.9649 4.9348 7.4278 7.4285 0.059-0.373 2.2919-24.46 4.8024-27.544 1.6991 3.9635 1.9317 12.551 9.011 22.823 6.5416 10.281 21.639 26.836 16.552 43.762-3.668 11.926-17.234 9.5699-21.019 4.6423-3.292-4.2036 1.1065-13.394 9.2281-10.562 1.4681 0.4996 2.5196 1.6957 3.7621 2.5693-0.3624-2.3703-0.5057-4.9839-2.026-6.9468-2.7346-3.7742-17.32 0.096-19.477 9.5275-2.4784 13.268 21.944 24.808 34.524 9.9203v-0.0001m-642.58 335.99c2.3853-0.2003 5.7425-0.8482 8.4415-1.9674 25.055-10.046 27.186-35.22 37.28-50.842 12.605-19.838 36.504-23.739 38.015-25.391-4.3724-2.3653-8.9566-4.1709-13.659-5.75-0.8042-0.2569-1.6018-0.5879-2.2052-1.2034 3.5393-1.0221 12.143-0.5932 14.121-1.2116-0.039-0.6487-0.1311-1.3005-0.418-1.888-7.8824-15.116-23.264-20.549-38.688-18.094-17.482 2.7834-32.59 15.141-33.811 36.733-0.4465 3.4971 0.021 7.0002 0 10.505 0.3056-0.2219 18.909-15.737 22.865-16.143-1.6012 4.0041-7.505 10.272-9.7629 22.542-2.644 11.895-3.6678 34.339-19.234 42.71-11.026 5.8391-18.348-5.4109-17.617-11.581 0.579-5.3077 9.7248-8.6875 13.465-0.9419 0.6848 1.3914 0.5826 2.9806 0.8434 4.477 1.4198-1.9324 3.1666-3.8818 3.4796-6.3448 0.7351-4.6024-11.972-12.254-20.102-7.0085-11.04 7.7666-2.4327 33.032 16.99 31.4h0.0001m-692.53-214.93c1.8283 1.5449 4.6803 3.4365 7.3802 4.5535 24.82 10.613 44.422-5.4057 62.556-9.5375 22.876-5.3961 42.484 8.7985 44.721 8.6983-1.4192-4.7643-3.4016-9.2567-5.6104-13.699-0.387-0.7503-0.7169-1.5484-0.7083-2.4102 3.2253 1.7799 9.0232 8.1409 10.859 9.1025 0.4311-0.4863 0.8269-1.0123 1.0394-1.6305 5.1151-16.262-1.9732-30.904-14.616-40.074-14.329-10.393-33.827-12.239-49.958 2.1654-2.7886 2.1571-4.9349 4.9649-7.4285 7.4278 0.373 0.059 24.458 2.1771 27.573 4.6495-3.9424 1.7477-12.541 2.0356-22.813 9.1148-10.281 6.5417-26.914 21.737-43.84 16.649-11.926-3.668-9.1685-16.776-4.288-20.622 4.1626-3.3437 13.04 0.7095 10.207 8.8311-0.4996 1.468-1.6956 2.5195-2.5693 3.762 2.3703-0.3624 5.3989-0.1597 7.3429-1.7041 3.7402-2.7809-0.217-17.428-9.6748-19.468-13.298-2.3143-25.057 21.613-10.169 34.193l0.0001 0.0001m-339.44-640.76c0.2004 2.3853 0.9108 5.7363 2.0301 8.4353 10.046 25.055 35.358 27.572 51.102 37.473 19.992 12.36 23.907 36.26 25.578 37.751 2.3115-4.4011 4.096-8.9388 5.6751-13.642 0.2569-0.8043 0.5879-1.6018 1.2034-2.2052 1.0221 3.5393 0.6218 12.033 1.2645 14.003 0.6482-0.047 1.2988-0.147 1.8827-0.4411 15.018-8.0671 20.378-23.102 17.923-38.527-2.7834-17.481-15.356-32.863-36.961-33.818-3.5023-0.4034-6.9994 0.1075-10.504 0.129 0.2257 0.3028 15.828 18.732 16.282 22.683-4.0235-1.5519-10.293-7.3878-22.589-9.4946-11.927-2.4974-34.24-3.2606-42.802-18.722-5.9745-10.954 5.2655-19.025 11.436-18.293 5.3077 0.579 8.7501 9.7194 1.0045 13.459-1.3913 0.6849-2.9806 0.5827-4.4769 0.8434 1.9323 1.4198 3.9618 3.7016 6.4285 3.9842 4.6111 0.6783 12.107-12.471 6.8621-20.601-7.7667-11.04-32.969-2.4382-31.337 16.985m496.07-928.1c-2.1149 1.121-4.2292 2.6788-6.2974 4.7426-19.33 18.841-11.87 43.416-15.025 61.745-3.8104 23.193-24.273 36.142-25.014 38.255 4.9498 0.4607 9.8766 0.3264 14.822-0.066 0.8405-0.079 1.7042-0.088 2.5006 0.2419-2.8547 2.3284-10.939 5.3058-12.516 6.6506 0.2905 0.5815 0.6306 1.145 1.125 1.5728 13.18 10.813 29.468 9.7852 42.693 1.4754 14.988-9.4185 24.053-26.701 16.699-47.038-0.9623-3.3916-2.7679-6.4298-4.1239-9.6617-0.1939 0.3241-11.221 21.885-14.7 23.811-0.099-4.3113 2.8748-12.388 0.1357-24.559-2.2372-11.978-10.107-33.004 0.9215-46.815 7.8475-9.7001 18.997-2.2194 20.748 3.7423 1.5525 5.1085-5.5307 11.799-12.012 6.1443-1.1762-1.0106-1.7062-2.5124-2.5336-3.7862-0.547 2.3348-1.3879 4.8136-0.7085 7.2016 1.1314 4.5213 16.082 6.3313 21.596-1.6193 7.2409-11.392-11.091-31.163-28.312-22.035m721.35-73.762c-2.2881-0.7028-5.6437-1.3277-8.5652-1.2951-26.994-0.016-38.717 22.391-53.776 33.305-18.925 13.938-42.528 8.5615-44.546 9.5311 3.1743 3.8258 6.7592 7.1839 10.533 10.404 0.6503 0.5384 1.2667 1.143 1.5969 1.9392-3.6651-0.3721-11.493-3.9525-13.559-4.1168-0.2057 0.6164-0.3627 1.2557-0.3156 1.9078 1.6737 16.966 13.936 27.664 29.164 31.14 17.258 3.9382 35.92-1.993 45.1-21.574 1.7178-3.0787 2.5894-6.5037 3.9158-9.7479-0.3663 0.092-23.344 7.5806-27.18 6.5289 2.9405-3.1544 10.732-6.7832 17.402-17.326 6.8882-10.052 16.208-30.544 33.772-32.512 12.408-1.31 15.012 11.834 12.034 17.288-2.5145 4.7101-12.262 4.4623-12.847-4.1191-0.1171-1.5463 0.5691-2.9833 0.8847-4.469-2.0377 1.2641-4.3847 2.4223-5.5929 4.5913-2.3971 3.9971 6.5466 15.81 16.046 13.97 13.138-3.0955 14.563-29.723-4.0695-35.446m563.46 456.4c-1.1209-2.1149-3.0796-4.9154-5.1685-6.9582-19.076-19.099-43.317-11.481-61.683-14.411-23.238-3.5264-36.202-23.983-38.324-24.699-0.3999 4.955-0.2671 9.8331 0.1251 14.778 0.079 0.8406 0.087 1.704-0.2421 2.5004-2.3285-2.8547-5.2861-10.828-6.6502-12.389-0.5778 0.2975-1.1369 0.6448-1.5589 1.1441-10.65 13.312-9.6944 29.254-1.3845 42.479 9.4185 14.988 27.01 24.215 47.256 16.612 3.3796-1.0037 6.3955-2.8462 9.6106-4.2417-0.3264-0.1899-21.9-11.023-23.869-14.479 4.3098-0.1513 12.362 2.7588 24.499-0.1289 11.95-2.3835 32.757-10.439 46.702 0.4193 9.7953 7.7284 2.6083 19.561-3.3534 21.312-5.1086 1.5526-11.854-5.5016-6.1994-11.983 1.0106-1.1762 2.5123-1.7062 3.7861-2.5336-2.3347-0.547-5.0876-1.8479-7.4671-1.1394-4.5072 1.1865-6.2567 16.225 1.7605 21.641 11.479 7.1014 31.287-10.705 22.159-27.927m14.972 880.08c11.684-24.002-29.836-43.033-28.582-11.836 1.8399 4.6095 2.3339 8.8864 11.572 5.6896-1.2781-0.9058-2.5676-1.9105-3.6847-3.037-3.5785-3.2947-2.4649-10.072 2.8408-11.968 5.3554-1.4111 13.446 6.1387 11.286 14.963-2.1306 7.2915-12.702 12.061-21.002 12.294-14.967 0.4435-26.137-5.0886-38.536-5.1511-7.0088-0.044-13.062 2.0603-15.737 1.7052 3.7702-4.9375 22.206-14.196 23.418-15.453-0.6555-0.6014-22.352-12.009-40.995-0.8734-6.8427 4.0806-11.938 9.03-15.636 15.508-8.1344 14.252-7.6752 30.967 4.0425 43.583 2.486-4.5905 4.6744-9.0762 7.122-13.685 0.1759 3.628-1.0663 13.416 0.3253 16.873 1.6713 1.1351 6.889-7.8335 16.38-15.074 26.11-20.45 51.469-2.7404 75.866-20.353 5.2905-3.8456 9.4074-9.2573 11.319-13.185m-547.36 475.4c25.234-8.71 9.4502-51.909-11.441-28.706-1.9027 4.584-4.5362 7.9899 4.3078 12.154-0.282-1.541-1.0133-2.9893-1.0066-4.5758-0.2006-4.86 5.3691-8.8945 10.462-6.4835 4.7845 2.7891 5.177 13.878-2.5901 18.59-6.6624 3.6493-17.491-0.3943-23.524-6.0978-10.897-10.27-14.875-22.05-23.598-30.862-4.925-4.9871-10.685-7.7499-12.325-9.8919 6.1573-0.8255 25.808 5.5957 27.554 5.5428-0.049-0.8883-7.3898-24.238-28.447-29.546-7.7238-1.9531-14.81-1.9967-22.005-0.03-15.83 4.3259-27.294 16.591-27.93 33.797 5.0039-1.4881 9.7091-3.1733 14.699-4.7015-2.441 2.6898-10.282 8.7737-11.7 12.22 0.4034 1.9797 10.45-0.5984 22.3 0.8479 32.97 3.5995 38.232 34.323 67.937 39.121 6.4603 1.0217 13.179 0.047 17.308-1.3784m-723.33-48.938c24.002 11.684 43.387-30.023 12.208-28.388-4.5867 1.896-8.8572 2.4421-5.548 11.64 0.8902-1.289 1.3972-2.8302 2.5238-3.9474 3.2946-3.5784 10.099-2.5207 11.996 2.785 1.411 5.3554-6.166 13.502-14.99 11.342-7.2915-2.1306-11.543-12.355-11.877-20.651-0.6262-14.961 4.5859-26.322 4.6485-38.721 0.044-7.0089-2.0903-13.008-1.7353-15.682 4.9376 3.7702 14.336 22.124 15.608 23.32 0.5933-0.6628 11.884-22.309 0.7486-40.952-4.0806-6.8427-9.0906-11.83-15.569-15.527-14.252-8.1343-31.323-7.6911-43.795 4.1801 4.6206 2.4297 9.2251 4.6442 13.834 7.0918-3.628 0.1759-13.491-1.0398-16.93 0.394-1.1146 1.6851 7.8445 6.9125 15.201 16.314 20.768 25.858 3.2004 51.737 21.109 75.917 3.9099 5.2433 8.6417 8.9714 12.569 10.883m-478.34-544.79c8.71 25.234 51.909 9.4502 28.706-11.441-4.584-1.9027-7.9899-4.5362-12.154 4.3079 1.541-0.282 2.9893-1.0134 4.5758-1.0067 4.86-0.2006 8.9533 5.3488 6.5423 10.441-2.7891 4.7846-13.61 5.7894-18.417-1.9195-3.7303-6.6175 0.3127-17.538 5.9422-23.641 10.136-11.022 21.934-15.164 30.638-23.994 4.9266-4.9855 7.6856-10.799 9.8074-12.465 0.9006 6.1467-5.4227 25.831-5.3698 27.576 0.8883-0.049 24.119-7.3529 29.427-28.41 1.9531-7.7238 1.8768-14.776-0.09-21.971-4.326-15.83-16.801-27.565-34.014-27.989 1.5493 4.9853 3.2697 9.7999 4.7978 14.79-2.6897-2.441-8.8344-10.267-12.28-11.686-1.9796 0.4034 0.7196 10.42-0.7267 22.27-3.5994 32.97-34.171 38.803-38.606 68.565-0.9428 6.4723-0.2036 12.445 1.2217 16.574m267.92-1017.5c-19.779 17.929 11.717 51.444 21.804 21.897-0.053-4.9629 1.0299-9.1298-8.7391-9.482 0.8651 1.3061 2.1066 2.3505 2.7245 3.8116 2.095 4.3898-1.4545 10.283-7.0848 10.069-5.496-0.6827-10.202-10.72-4.9125-18.106 4.6915-5.9746 16.265-6.5051 24.055-3.6303 14.056 5.1635 22.348 14.44 33.831 19.118 6.4878 2.6523 12.875 2.9378 15.224 4.2639-5.3389 3.1766-25.868 4.9353-27.46 5.6502 0.3844 0.8023 16.254 19.454 37.703 16.067 7.8703-1.237 14.409-3.9626 20.255-8.5954 12.861-10.192 18.601-25.95 12.435-42.027-4.0189 3.3317-7.6899 6.7204-11.68 10.084 1.19-3.4318 6.0175-12.1 5.9701-15.826-1.1477-1.6627-9.2928 4.7489-20.8 7.9276-31.854 9.2367-48.72-16.542-77.922-9.2855-6.3424 1.5983-12.167 5.1308-15.403 8.0645m684.61-238.56c-26.663-1.3081-28.093 44.662-0.066 30.901 3.4721-3.5465 7.185-5.7274 0.5263-12.884-0.3118 1.5352-0.1759 3.1514-0.7697 4.6217-1.6227 4.5854-8.3007 6.2739-12.131 2.1413-3.4034-4.3689 0.3688-14.825 9.3317-16.308 7.5421-0.90727 16.104 6.8387 19.579 14.379 6.2876 13.59 5.5952 25.982 10.407 37.41 2.7121 6.463 7.0303 11.15 7.7537 13.749-6.0213-1.529-21.872-14.743-23.512-15.343-0.2851 0.8427-2.1639 25.202 15.395 37.974 6.4399 4.6905 12.996 7.3239 20.406 8.1818 16.301 1.8875 31.821-5.2028 38.635-21.015-5.2032-0.4221-10.306-0.6569-15.506-1.0999 3.2681-1.5853 12.816-4.3322 15.417-7.0005 0.3642-1.9872-9.9255-3.2905-20.382-9.0514-29.25-15.634-23.271-46.377-49.241-61.575-5.6559-3.285-11.481-4.8664-15.844-5.0805m653.63 313.64c-17.929-19.778-51.445 11.716-21.897 21.804 4.9629-0.053 9.1297 1.0299 9.4819-8.7391-1.306 0.8651-2.3504 2.1066-3.8116 2.7245-4.3898 2.095-10.329-1.4122-10.115-7.0425 0.6827-5.4959 10.767-10.244 18.153-4.9548 5.9746 4.6915 6.1338 15.758 3.3554 23.582-4.9896 14.118-14.022 22.698-18.7 34.181-2.6523 6.4878-2.8869 12.887-4.184 15.252-3.2422-5.2993-5.145-25.898-5.8794-27.482-0.7975 0.3942-19.305 16.247-15.918 37.696 1.237 7.8703 4.0602 14.329 8.6929 20.175 10.192 12.861 26.254 18.765 42.254 12.402-3.3808-3.9777-6.8483-7.7333-10.212-11.723 3.4318 1.1899 12.151 5.9801 15.877 5.9328 1.6627-1.1478-4.742-9.3079-8.062-20.775-9.6277-31.738 16.217-49.148 8.5999-78.259-1.6765-6.3222-4.7013-11.539-7.6349-14.776m205.03 759.18c0.9813-7.3946 0.1733-16.032-3.1593-23.268-9.069-19.731-33.642-22.467-34.519-22.32 0.3302 1.7143 10.478 19.754 10.64 25.964-2.3751-1.2792-6.0586-6.5108-11.862-10.441-10.258-6.9648-22.645-7.9784-34.948-16.515-6.8286-4.7229-13.428-11.663-11.595-19.035 2.5789-8.711 13.193-10.086 17.204-6.2664 3.7332 4.22 1.3103 9.2852-3.4531 10.27-1.5375 0.3914-3.12 0.034-4.6833 0.1341 6.1863 7.5689 8.8511 4.1874 12.836 1.229 20.292-30.136-44.404-32.704-27.789 10.738 10.841 28.07 42.804 25.104 49.613 57.563 2.5992 11.652 0.4618 21.769 2.4589 22.075 3.3724-1.5853 9.0097-10.032 11.48-12.694-1.095 5.1023-2.5515 10.372-3.8547 15.428 17.172-1.2674 29.473-16.594 31.632-32.861m-352.75 606.93c5.9225-4.5349 11.42-11.263 14.18-18.736 7.5391-20.365-7.9856-39.65-8.716-40.158-0.9608 1.4576-6.4491 21.368-10.726 25.874-0.7749-2.584 0.3002-8.9125-1.0246-15.795-2.3288-12.178-10.391-21.678-13.054-36.414-1.489-8.1681-1.2884-17.79 5.22-21.707 7.9832-4.336 16.439 2.1736 16.575 7.7101-0.3443 5.6238-5.9835 7.8095-10.081 5.1882-1.3739-0.7935-2.2567-2.1546-3.4459-3.1744-0.8574 9.7377 3.4114 9.1781 8.3297 9.8434 35.57-7.4006-7.917-54.76-26.887-12.294-12.182 27.514 12.218 47.953-5.5774 75.941-6.2767 10.155-14.993 15.739-13.777 17.352 3.5209 1.2205 13.423-0.759 17.052-0.8947-4.3821 2.8336-9.1023 5.5813-13.598 8.2344 13.038 11.246 32.5 9.0057 45.53-0.9707m-678.09 181.62c7.3945 0.9812 16.047 0.049 23.283-3.284 19.731-9.069 22.396-33.746 22.238-34.622-1.7101 0.3514-19.679 10.643-25.889 10.805 1.2792-2.375 6.5178-6.121 10.448-11.924 6.9647-10.258 7.6027-22.653 15.987-35.06 4.6382-6.8863 12.207-13.504 19.58-11.671 8.711 2.5789 10.089 13.13 6.2703 17.141-4.2201 3.7332-9.7551 1.3226-10.799-3.4282-0.4104-1.5325-0.072-3.1193-0.192-4.6813-7.4919 6.2793-4.0777 8.9022-1.0703 12.85 30.384 19.918 32.159-44.875-11.074-27.726-27.934 11.186-24.533 42.756-56.907 49.963-11.619 2.7422-21.74 0.5893-22.022 2.5899 1.6266 3.3527 10.033 8.9237 12.696 11.394-5.1022-1.095-10.264-2.4947-15.335-3.7357 1.478 17.155 16.519 29.23 32.787 31.389m-608.88-349.36c4.5348 5.9226 11.362 11.342 18.835 14.103 20.365 7.5391 39.746-8.066 40.254-8.7964-1.4576-0.9607-21.395-6.3459-25.953-10.567 2.5743-0.8067 8.8602 0.2357 15.726-1.1738 12.149-2.4788 21.494-10.612 36.195-13.456 8.1492-1.5896 17.663-1.4141 21.661 5.0454 4.4344 7.929-1.6653 16.924-7.2018 17.059-5.6238-0.3442-7.8567-5.9418-5.2354-10.039 0.7935-1.3738 2.1546-2.2568 3.1744-3.4459-9.7377-0.8574-9.1782 3.4114-9.8435 8.3297 7.4007 35.57 54.448-8.9712 11.751-27.415-27.662-11.842-47.704 12.983-75.691-4.8116-10.155-6.2767-15.84-14.919-17.454-13.703-1.2205 3.5209 0.8098 13.386 0.9454 17.016-2.8335-4.3821-5.5194-9.0037-8.2275-13.467-11.085 13.175-8.9123 32.294 1.0642 45.323m-185.39-677.07c-0.9813 7.3946 0.076 16.062 3.4086 23.298 9.0691 19.731 33.871 22.407 34.747 22.25-0.3514-1.71-10.704-19.622-10.942-25.829 2.3907 1.2499 6.1297 6.4348 11.981 10.293 10.343 6.8378 22.733 7.6975 35.14 16.081 6.8863 4.6382 13.552 11.494 11.812 18.888-2.4711 8.7422-13.144 10.789-17.155 6.9702-3.7332-4.2201-1.3855-9.759 3.3653-10.803 1.5326-0.4103 3.1193-0.072 4.6813-0.1919-6.2793-7.4919-8.9022-4.0778-12.85-1.0704-19.918 30.384 44.813 32.154 27.663-11.079-11.186-27.934-43.068-24.568-50.276-56.942-2.7422-11.619-0.713-21.759-2.7137-22.041-3.3527 1.6267-8.9021 10.139-11.34 12.832 1.0322-5.1153 2.4401-10.401 3.6811-15.472-17.155 1.478-29.044 16.547-31.203 32.814m112.44-339.64c-3.7256 6.4623-6.0521 14.87-5.731 22.83 0.8596 21.698 22.765 33.632 23.634 33.82 0.3278-1.7147-2.4106-22.222-0.2639-28.052 1.7334 2.0671 3.213 8.2864 7.1504 14.085 6.9529 10.266 18.078 15.792 26.347 28.275 4.5954 6.915 8.1405 15.816 3.7079 21.985-5.6222 7.1361-15.996 4.4865-18.306-0.5469-1.9036-5.303 2.2337-9.1182 7.0232-8.2694 1.5732 0.2057 2.9107 1.124 4.4001 1.6095-2.944-9.3215-6.6715-7.1671-11.469-5.8945-30.008 20.48 29.153 46.816 29.798 0.3098 0.3189-30.089-30.426-39.148-24.753-71.825 1.8925-11.787 7.6383-20.386 5.8958-21.408-3.7195 0.2267-12.099 5.9783-15.379 7.5387 2.9036-4.3359 6.2246-8.6816 9.304-12.897-16.424-5.1692-33.163 4.2226-41.36 18.439m552.36-432.58c-7.18 2.023-14.775 6.2222-20.105 12.144-14.539 16.13-7.3337 39.805-6.8523 40.553 1.4442-0.9808 13.99-17.477 19.63-20.082-0.2359 2.6874-3.5778 8.161-4.8938 15.045-2.3429 12.176 1.6252 23.979-1.355 38.654-1.6402 8.1391-5.4072 16.998-12.904 18.226-9.0215 1.0705-14.473-8.1093-12.547-13.302 2.4037-5.0959 8.4578-5.0371 11.293-1.0845 0.9822 1.2459 1.298 2.8373 2.0248 4.225 4.4034-8.7274 0.2318-9.7892-4.0902-12.229-35.781-6.3012-12.901 53.809 20.44 21.38 21.502-21.05 6.1232-49.346 33.241-68.44 9.6729-6.9964 19.801-9.0745 19.292-11.03-2.7903-2.4699-12.767-4.2679-16.19-5.4838 5.1189-1.0127 10.525-1.7978 15.683-2.6012-7.9583-15.269-26.872-20.426-42.667-15.976m697.1 82.649c-6.5075-3.6466-14.876-5.9927-22.832-5.5744-21.686 1.1243-33.288 23.05-33.466 23.922 1.7186 0.3068 22.211-2.5847 28.041-0.4379-2.0671 1.7333-8.3158 3.2678-14.114 7.2052-10.266 6.9529-15.82 18.133-28.304 26.402-6.915 4.5955-15.871 8.252-22.04 3.8194-7.1362-5.6222-4.513-15.94 0.5204-18.25 5.3031-1.9036 9.5557 2.3907 8.7654 7.1902-0.1864 1.5756-1.0885 2.9241-1.5558 4.4193 9.2849-3.0575 7.0853-6.7584 5.7543-11.54-20.845-29.756-46.487 29.784 0.023 29.862 30.09-0.048 38.61-30.594 71.354-25.32 11.809 1.7484 20.407 7.5091 21.408 5.7542-0.2721-3.7165-6.0173-12.01-7.5778-15.29 4.3358 2.9035 8.6086 6.1219 12.862 9.1496 4.9679-16.486-4.5218-33.29-18.838-41.312m436.02 550.16c-2.0229-7.18-6.3413-14.739-12.263-20.069-16.13-14.539-39.896-7.2201-40.638-6.7298 0.9983 1.4323 17.514 13.819 20.187 19.427-2.69-0.2032-8.1813-3.4972-15.066-4.8133-12.176-2.3429-23.864 1.9781-38.573-0.8228-8.1585-1.5408-16.932-5.2456-18.251-12.727-1.1804-9.0078 7.8182-15.102 13.011-13.176 5.0959 2.4038 5.0955 8.4366 1.143 11.272-1.246 0.9822-2.8373 1.2983-4.225 2.0251 8.7274 4.4035 9.7889 0.2309 12.229-4.0912 6.3012-35.781-53.903-11.82-21.07 21.122 21.311 21.243 49.084 5.623 68.508 32.506 7.1142 9.5867 9.1805 19.724 11.129 19.191 2.4355-2.8204 4.2072-12.74 5.423-16.163 1.0128 5.119 1.7886 10.409 2.6552 15.557 15.17-8.1446 20.252-26.714 15.801-42.509m8.0014 476.25c3.7682-15.158-0.684-33.073-15.702-41.14-0.5839-0.2941-1.2345-0.3941-1.8827-0.4411-0.6426 1.9706-0.488 10.804-1.6395 14.304-0.593-0.6256-0.8944-1.4348-1.1216-2.2479-1.4051-4.7577-3.0704-9.4981-5.3819-13.899-1.671 1.4905-6.227 25.215-27.332 35.56-16.638 8.3125-40.158 3.0824-54.893 25.699-14.845 22.21 12.365 38.886 23.834 28.978 7.0616-6.614 1.8973-19.645-2.7577-19.878-2.4744-0.2035-4.7431 1.1022-6.9274 2.0914 1.41 0.5648 2.986 0.7936 4.2056 1.7515 6.804 5.2619 1.8062 12.133-3.4834 11.407-6.1633-0.7877-15.904-8.4804-7.9095-18.06 11.411-13.497 32.81-8.7175 44.975-9.4403 12.472-0.2823 19.466-5.2068 23.649-6.2552-0.9342 3.8659-19.216 19.734-19.49 19.994 3.4497 0.6196 6.8082 1.7201 10.328 1.9206 21.451 2.7482 37.258-13.16 41.529-30.339h0.0002v0.0001m-416.94 564.63c13.383-8.0535 22.852-23.949 17.937-40.273-0.2049-0.6209-0.5943-1.1516-1.0194-1.6432-1.8478 0.939-7.9679 7.3209-11.256 8.981 0.023-0.8616 0.3821-1.6469 0.7965-2.3825 2.3706-4.3578 4.5281-8.9135 6.0056-13.66-2.2355-0.1276-22.167 13.533-44.405 5.9235-17.642-5.8867-31.277-26.06-57.618-20.165-26.136 5.5269-18.403 36.288-3.2749 37.206 9.6733 0.1984 15.562-12.781 12.435-16.238-1.6059-1.8935-4.1333-2.5746-6.3773-3.4196 0.5977 1.3964 1.5502 2.6727 1.7352 4.2123 1.0905 8.5319-7.697 10.087-10.975 5.8729-3.8609-4.8684-4.803-17.512 7.6236-18.633 17.612-1.4751 29.335 16.982 38.448 25.072 9.0189 8.6197 17.431 10.056 21.13 12.272-3.3942 2.073-27.512 0.4205-27.889 0.4104 2.0012 2.8774 3.5979 6.0303 5.945 8.661 13.225 17.111 35.589 16.932 50.756 7.8047v-0.0003m-693.78 106.36c15.158 3.7682 33.114-0.8666 41.181-15.885 0.2942-0.5839 0.3941-1.2346 0.4412-1.8827-1.9706-0.6427-10.817-0.427-14.317-1.5785 0.6256-0.5929 1.4348-0.8944 2.2479-1.1215 4.7577-1.4052 9.5112-3.1315 13.912-5.443-1.4904-1.671-25.228-6.1791-35.83-27.156-8.5152-16.535-3.499-40.386-26.294-54.844-22.389-14.573-38.69 12.706-28.643 24.053 6.6997 6.9804 19.625 1.7902 19.801-2.8672 0.1733-2.4767-0.6191-4.5946-1.6084-6.7789-0.5647 1.41-0.7936 2.986-1.7515 4.2055-5.2619 6.8041-12.585 1.7199-11.923-3.5781 0.7124-6.1726 8.9963-15.809 18.576-7.8148 13.497 11.411 8.7531 32.691 9.4759 44.855 0.2823 12.472 5.2454 19.422 6.3449 23.592-3.877-0.8869-19.841-19.099-20.101-19.373-0.6196 3.4497-1.72 6.8082-1.9205 10.328-2.7481 21.451 13.226 37.018 30.404 41.289l-0.0001-0.0001m-566.93-413.79c8.0536 13.383 24.254 23.051 40.517 17.936 0.6183-0.2125 1.1442-0.6084 1.6306-1.0394-0.9616-1.8362-7.4461-8.0126-9.1063-11.301 0.8617 0.023 1.647 0.382 2.3826 0.7964 4.3578 2.3706 8.9658 4.5449 13.73 5.9641 0.1003-2.2368-13.567-22.151-6.2302-44.481 5.6705-17.713 25.975-30.97 20.08-57.312-5.5269-26.136-36.398-18.345-37.317-3.2169-0.1985 9.6733 12.666 15.114 16.084 11.945 1.8738-1.6288 2.7836-3.672 3.6286-5.9161-1.3963 0.5977-2.6726 1.5503-4.2122 1.7353-8.532 1.0905-10.143-7.6683-5.9282-10.946 4.8684-3.8609 17.108-5.4237 18.381 6.9883 1.6901 17.593-16.744 29.608-24.722 38.818-8.5089 9.1235-9.9026 17.588-12.074 21.314-2.1143-3.3686-0.6354-27.574-0.6299-27.952-2.8528 2.0361-5.986 3.6712-8.5878 6.0502-16.948 13.433-16.755 35.445-7.6279 50.613h0.0004m-110.31-692.76c-3.5825 15.203 1.0658 33.058 16.182 40.94 0.5875 0.287 1.2393 0.3789 1.888 0.418 0.6184-1.9783 0.3634-10.808 1.4719-14.321 0.6005 0.6183 0.9119 1.4236 1.149 2.234 1.4633 4.7401 3.1788 9.4583 5.5441 13.831 1.6525-1.5108 5.9479-25.283 26.925-35.885 16.535-8.5153 40.146-3.5643 54.604-26.359 14.573-22.389-12.825-38.727-24.172-28.68-6.9804 6.6998-1.6714 19.662 2.986 19.838 2.4768 0.1732 4.7293-1.1599 6.9014-2.1758-1.4168-0.5475-2.9955-0.7572-4.2266-1.7001-6.8678-5.1784-1.9402-12.106 3.3579-11.444 6.1725 0.7124 15.992 8.2809 8.1153 17.957-11.245 13.635-32.716 9.1131-44.87 9.9844-12.468 0.4347-19.408 5.4423-23.578 6.5418 0.8868-3.877 18.988-19.963 19.259-20.226-3.457-0.5774-6.8287-1.6367-10.351-1.7943-21.483-2.486-37.124 13.608-41.185 30.837h-0.0001m148.73-325.32c-9.1043 12.691-11.62 30.965-0.6465 44.011 0.4338 0.4892 1.0014 0.8225 1.5863 1.1057 1.3255-1.5935 4.4571-9.8521 6.8203-12.678 0.3197 0.8005 0.3008 1.6637 0.2113 2.5033-0.4527 4.9401-0.6677 9.9536-0.1464 14.897 2.1034-0.7673 15.145-21.101 38.579-22.91 18.532-1.5727 38.468 12.019 60.526-3.5398 22.01-15.14 2.9082-40.682-11.414-35.724-9.0087 3.5292-9.0374 17.532-4.7991 19.471 2.2235 1.1046 4.8143 0.7311 7.2096 0.6203-1.101-1.0464-2.4804-1.8422-3.2589-3.1833-4.3741-7.4061 2.8161-11.924 7.4606-9.2905 5.4337 3.0138 11.633 13.746 0.6617 19.687-15.595 8.3166-33.717-4.0565-45.286-7.8837-11.692-4.3504-20.02-2.3675-24.294-2.9401 2.2974-3.2464 25.167-11.216 25.518-11.356-2.9758-1.8518-5.6889-4.1165-8.8849-5.6049-18.912-10.488-39.522-1.5721-49.841 12.811m596.52-369.88c-15.412 2.5363-30.095 13.771-31.56 30.756-0.039 0.6526 0.1264 1.2897 0.3397 1.9036 2.0641-0.1896 10.112-3.8455 13.781-4.1727-0.3399 0.792-0.963 1.389-1.6199 1.9193-3.8134 3.1731-7.5051 6.5969-10.632 10.461 2.03 0.9447 25.608-4.3352 43.458 10.956 14.216 11.992 18.685 35.575 45.284 40.171 26.269 4.8577 30.818-26.772 17.185-33.394-8.8656-3.8746-18.783 6.0695-17.157 10.438 0.7912 2.3534 2.8872 3.9213 4.6593 5.5367-0.039-1.5184-0.4514-3.0565-0.054-4.5554 2.144-8.3298 10.88-6.5148 12.366-1.3864 1.7847 5.9517-2.0144 18.038-13.974 14.481-16.908-5.1467-20.965-26.647-26.439-37.534-5.1916-11.344-12.478-15.799-15.096-19.226 3.9201-0.671 25.719 9.803 26.066 9.952-0.7948-3.4136-1.1118-6.9335-2.3193-10.246-5.9568-20.79-26.817-28.934-44.284-26.06v0.0003m683.78 158.36c-12.691-9.1044-31.071-11.466-44.117-0.4918-0.4892 0.4339-0.8224 1.0016-1.1057 1.5865 1.5936 1.3254 9.8868 4.405 12.713 6.7682-0.8004 0.3198-1.6639 0.3007-2.5035 0.2112-4.9401-0.4527-9.988-0.6156-14.932-0.094 0.7674 2.1035 21.138 15.096 23.234 38.506 1.7999 18.511-11.715 38.841 4.1147 60.706 15.41 21.822 40.625 2.5182 35.491-11.741-3.64-8.9644-17.903-9.2217-19.842-4.9835-1.1046 2.2236-0.7312 4.8143-0.6204 7.2096 1.0464-1.1009 1.8422-2.4804 3.1833-3.259 7.4061-4.374 12.319 3.0619 9.7433 7.7386-2.9465 5.4704-14.198 11.356-20.14 0.3839-8.3166-15.595 3.9787-33.618 7.8059-45.187 4.3505-11.692 2.3212-20.001 2.8412-24.282 3.2744 2.2574 11.353 25.106 11.493 25.457 1.8518-2.9758 4.1165-5.689 5.6049-8.8849 10.488-18.913 1.4216-39.322-12.962-49.641m373.19 594.45c-2.5363-15.412-13.969-30.394-30.971-31.652-0.6531-0.031-1.2881 0.1422-1.8993 0.363 0.2149 2.0615 3.9332 10.202 4.2604 13.872-0.7921-0.3399-1.3891-0.9636-1.9194-1.6205-3.1731-3.8133-6.627-7.5415-10.529-10.621-0.9199 2.0414 4.3715 25.606-10.7 43.642-11.816 14.362-35.625 19.164-39.892 45.818-4.5337 26.327 27.008 30.5 33.461 16.787 3.7649-8.9127-6.1582-18.721-10.506-17.042-2.3435 0.8201-3.9532 2.3777-5.5687 4.1497 1.5185-0.038 3.0566-0.451 4.5554-0.053 8.3299 2.144 6.5774 10.873 1.4489 12.358-5.9517 1.7846-17.883-1.2819-14.474-13.284 4.9379-16.97 26.528-21.311 37.347-26.919 11.279-5.3307 15.715-12.681 19.11-15.341 0.7191 3.9116-9.6268 25.857-9.7716 26.206 3.4036-0.8368 6.9193-1.1971 10.216-2.4452 20.715-6.2123 28.706-26.748 25.832-44.214m-48.062 468.29c2.2482-7.1863 2.8935-15.818 0.4409-23.008-2.3243-7.2167-9.1932-12.723-16.798-13.014-4.6769-0.1413-10.206 0.3647-13.536 4.0335-2.9106 3.1137-0.2878 7.7981 3.0377 9.3664 1.8367 1.2276 5.0853 1.3656 5.8683-1.1746 1.6061-2.7171 1.2345-7.2596 4.999-8.1822 3.485-0.5574 6.4908 2.0905 8.8358 4.3394 5.6276 5.9089 5.1958 16.045 0.8254 22.569-5.628 9.407-16.438 14.203-26.486 17.251-12.651 3.9367-26.229 6.1552-36.592 15.122-8.4146 7.2687-13.074 17.546-12.33 28.742 0.033 5.3452 1.4087 10.816 4.9079 15.099 3.45 4.9359 9.6763 6.8483 15.474 6.4523 3.639-0.2975 8.0952-0.2197 10.806-3.0563 0.9605-2.6436 0.6156-5.9357-0.4983-8.4916-1.4181-2.6952-5.4155-3.6865-8.0006-2.2661-2.2497 2.6659-2.1694 7.6994-6.2783 8.5091-4.1692 0.5518-7.4017-3.0843-9.5832-6.1699-3.4783-4.9988-2.5703-11.397 0.026-16.535 2.6079-5.0681 4.807-10.233 9.7815-13.47 9.1377-6.205 20.058-8.6219 30.281-12.404 10.794-3.9464 22.418-8.3085 30.548-16.8 1.7314-1.9348 3.4023-4.4493 4.2708-6.9139m-233.51 353.62c1.9241-1.7681 3.5893-4.2903 4.6864-6.6436 4.606-10.816 4.0624-23.205 3.4366-34.681-0.5524-10.886-2.6121-21.848-0.5141-32.692 1.0123-5.8477 4.9187-9.8701 8.5458-14.267 3.6953-4.4139 9.2322-7.755 15.198-6.5333 3.6963 0.7857 8.3134 2.3197 9.4527 6.3679 0.8787 4.0947-3.796 5.9918-5.3574 9.1111-0.2846 2.9358 2.204 6.2173 5.2401 6.4564 2.7881 0.014 5.9691-0.9528 8.0185-2.8792 1.5354-3.6111-0.3465-7.6179-1.4679-11.093-1.8585-5.5057-6.1135-10.472-12.011-11.692-5.3172-1.5226-10.679-0.8144-15.628 1.2055-10.626 3.6065-18.428 12.244-21.789 22.843-4.1535 13.059-0.8732 26.369 0.4905 39.548 1.1555 10.437 0.9822 22.25-5.4518 31.126-4.2784 6.5847-13.444 10.962-21.09 8.1108-2.9896-1.2722-6.6061-2.9951-7.4634-6.4186-0.6315-3.8241 3.6957-5.2638 5.5622-7.8091 2.0276-1.7189 0.6231-4.6514-1.2279-5.8574-2.7498-2.4408-8.0906-3.0156-9.8094 0.8848-2.0643 4.5043-0.3584 9.7837 1.6094 14.029 3.2563 6.8791 11.024 11.033 18.573 10.333 7.5752-0.5713 15.274-4.5556 20.996-9.4499m-237.27 160.9c6.6712-3.4918 13.204-9.1948 16.554-16.013 3.4594-6.7465 2.4821-15.525-2.6898-21.109-3.2072-3.407-7.4605-6.9309-12.41-6.6915-4.2599 0.1436-5.7041 5.3386-4.4615 8.799 0.4307 2.1668 2.6518 4.5633 4.9863 3.2922 3.0472-0.8228 5.999-4.2434 9.3376-2.2744 2.8835 2.035 3.0745 6.0903 3.1425 9.3387-0.1989 8.1575-7.6449 15.076-15.348 16.599-10.631 2.6722-21.64-1.5235-30.901-6.4735-11.73-6.1621-23.14-14.165-36.819-14.985-11.099-0.675-21.721 3.1445-29.008 11.677-3.7101 3.8482-6.3566 8.5788-6.9111 14.082-1.0507 5.9297 1.986 11.717 6.4116 15.482 2.8122 2.3287 5.8369 5.5609 9.7599 5.4724 2.5484-1.1901 4.6219-3.7912 5.6416-6.3861 0.903-2.9086-1.2226-6.4361-4.055-7.2597-3.4758 0.2943-6.9677 3.9396-10.446 1.6067-3.3382-2.5578-3.0528-7.4148-2.4135-11.139 1.0751-5.9943 6.2311-9.9059 11.7-11.702 5.4277-1.7397 10.613-3.895 16.419-2.6661 10.849 2.0738 20.257 8.0292 30.159 12.584 10.423 4.8419 22.008 9.9166 33.758 9.5176 2.5905-0.1754 5.2364-0.6223 7.5933-1.7509m-414.92 86.085c2.6109 0.1103 5.5726-0.5273 8.0123-1.4156 10.905-4.3914 19.281-13.599 26.953-22.156 7.3069-8.0881 13.6-17.359 22.752-23.543 4.8507-3.4191 10.454-3.5642 16.128-4.1083 5.734-0.5081 12.01 1.0131 15.365 6.0956 2.058 3.1692 4.2381 7.5187 2.1812 11.187-2.2741 3.5167-6.9191 1.584-10.229 2.6857-2.2773 1.8746-2.8378 5.9548-0.86 8.2707 1.9612 1.9817 4.8925 3.5155 7.7038 3.6026 3.6391-1.4678 5.2181-5.6401 6.8419-8.9103 2.5145-5.2388 3.0435-11.731-0.2642-16.763-2.6831-4.8365-7.2517-8.1372-12.205-10.147-10.124-4.8385-21.38-4.2985-31.251 0.8198-12.171 6.2971-19.262 18.123-27.617 28.406-6.563 8.1971-15.04 16.491-25.865 18.217-7.6813 1.6309-17.261-1.6918-20.651-9.1144-1.2144-3.0136-2.5534-6.789-0.7388-9.8161 2.2575-3.1506 6.3369-1.1403 9.4565-1.6203 2.6491 0.2183 3.7296-2.8484 3.2736-5.0101-0.2185-3.6702-3.5901-7.8217-7.5635-6.2791-4.6447 1.7253-7.2038 6.6681-8.7598 11.081-2.4729 7.1979-0.028 15.574 5.8047 20.417 5.7604 4.9525 14.024 7.5159 21.531 8.1014m-281.71-53.207c7.1863 2.2482 15.859 2.7761 23.049 0.3235 7.2167-2.3243 12.743-9.2522 13.034-16.858 0.1413-4.6769-0.3843-10.147-4.0531-13.477-3.1137-2.9107-7.8971-0.2771-9.4247 3.0673-1.205 1.8516-1.3034 5.1016 1.2461 5.8535 2.7365 1.5729 7.2523 1.2119 8.2207 4.9649 0.6 3.478-2.0111 6.5158-4.2312 8.8881-5.8398 5.6993-15.936 5.2593-22.513 0.9689-9.4749-5.5129-14.503-16.38-17.552-26.429-3.9367-12.651-6.37-26.321-15.463-36.573-7.3707-8.3253-17.62-13.05-28.806-12.17-5.3444 0.098-10.768 1.4778-15.008 5.0289-4.8935 3.51-6.7297 9.7591-6.2631 15.551 0.3419 3.6351 0.1951 8.0594 3.0318 10.771 2.6435 0.9605 5.9622 0.5593 8.5181-0.5546 2.6952-1.4181 3.6865-5.4155 2.2661-8.0006-2.6659-2.2496-7.7259-2.1131-8.5356-6.2221-0.5519-4.1691 3.0843-7.4016 6.1699-9.5831 4.9988-3.4783 11.165-2.6863 16.334-0.1524 5.0995 2.5458 10.512 4.8164 13.749 9.7908 6.205 9.1378 8.6696 19.944 12.451 30.166 3.9465 10.794 8.5838 22.487 17.174 30.513 1.9557 1.7078 4.1426 3.2627 6.6073 4.1312m-354.91-231.54c1.7682 1.9242 4.3361 3.5459 6.6893 4.6429 10.816 4.606 23.295 3.9735 34.771 3.3477 10.886-0.5524 21.758-2.7285 32.627-0.7649 5.8598 0.9398 10.108 4.9855 14.504 8.6126 4.4138 3.6953 7.5926 9.0547 6.4447 15.035-0.7401 3.7057-2.2169 8.3414-6.2507 9.5307-4.0836 0.9292-5.9912-3.7764-9.1296-5.2991-2.9391-0.2483-6.1896 2.2807-6.3911 5.3195 0.02 2.7881 0.9191 5.8691 2.8454 7.9185 3.6112 1.5355 7.6985-0.3222 11.159-1.4864 5.4823-1.9264 10.447-6.1427 11.666-12.04 1.5226-5.3171 0.606-10.857-1.4749-15.781-3.7375-10.58-12.142-18.087-22.741-21.448-13.059-4.1536-26.502-0.7379-39.681 0.6258-10.437 1.1555-22.341 1.0699-31.216-5.3642-6.5847-4.2783-11.056-13.359-8.2038-21.004 1.2722-2.9897 2.995-6.6061 6.4186-7.4634 3.8241-0.6316 5.3106 3.6533 7.8558 5.5198 1.7189 2.0276 4.6514 0.6231 5.8574-1.2279 2.4408-2.7497 2.9147-8.1896-1.0066-9.86-4.5295-2.0084-9.7338-0.2859-13.954 1.7342-6.8383 3.3411-11.032 10.992-10.332 18.541 0.5713 7.5752 4.6487 15.189 9.5429 20.911m-162.06-236.06c3.5729 6.6281 9.2307 13.152 16.089 16.419 6.7882 3.3769 15.437 2.2266 21.021-2.9454 3.407-3.2071 6.893-7.5461 6.5933-12.492-0.1956-4.2578-5.3456-5.6696-8.7906-4.385-2.1614 0.4572-4.5291 2.6857-3.258 5.0202 0.8228 3.0472 4.299 5.9711 2.33 9.3096-2.035 2.8836-6.0294 3.1853-9.2767 3.2929-8.1594-0.099-15.044-7.5223-16.66-15.207-2.8017-10.598 1.3854-21.716 6.2222-31.036 6.0186-11.804 14.02-23.116 14.84-36.795 0.675-11.099-3.3182-21.653-11.851-28.94-3.8482-3.7101-8.6885-6.5589-14.198-7.0462-5.9421-0.9783-11.659 2.1421-15.425 6.5677-2.3287 2.8121-5.5329 5.9599-5.3965 9.8816 1.2211 2.5337 3.7738 4.4792 6.3688 5.4989 2.9085 0.903 6.4361-1.2227 7.2596-4.055-0.2943-3.4758-3.9981-6.9468-1.6652-10.425 2.5578-3.3382 7.4148-3.0528 11.139-2.4135 5.9943 1.0751 9.8527 5.974 11.716 11.421 1.8057 5.4061 4.0565 10.827 2.8275 16.633-2.0738 10.849-8.0002 20.21-12.434 30.167-4.7145 10.481-9.7809 21.878-9.3819 33.628 0.1754 2.5904 0.7732 5.5589 1.9305 7.9019m-88.567-414.39c-0.078 2.612 0.5845 5.2123 1.4727 7.652 4.3915 10.905 13.66 19.454 22.312 27.019 8.1781 7.2061 17.381 13.389 23.678 22.463 3.479 4.808 3.6534 10.671 4.1976 16.344 0.508 5.7341-0.971 11.767-6.0117 15.184-3.1436 2.0971-7.4659 4.3307-11.159 2.3193-3.5446-2.2305-1.5975-6.9044-2.74-10.2-1.9027-2.2539-5.9894-2.7641-8.2807-0.7578-1.9573 1.9855-3.5001 4.7999-3.5872 7.6113 1.4678 3.6391 5.703 5.2134 8.9732 6.8372 5.2387 2.5145 11.73 3.0434 16.763-0.2642 4.8364-2.6831 8.0743-7.247 10.084-12.2 4.8385-10.124 4.1095-21.371-1.0088-31.242-6.2971-12.171-18.187-19.353-28.573-27.579-8.2779-6.4607-16.64-15.077-18.367-25.902-1.6308-7.6813 1.5657-17.266 8.9883-20.656 3.0136-1.2144 6.789-2.5534 9.8161-0.7388 3.1506 2.2575 1.2033 6.34 1.6833 9.4596-0.2183 2.6492 2.857 3.7103 5.0128 3.2275 3.6673-0.2639 7.8492-3.6839 6.2576-7.6378-1.7827-4.623-6.7122-7.0866-11.125-8.6425-7.1979-2.4729-15.636 0.1848-20.407 6.0772-4.8808 5.8213-7.4869 14.112-7.9793 21.626m77.22-346.98c-1.0708 2.3837-1.453 5.0397-1.5652 7.6337-0.1123 11.756 5.2261 23.207 10.321 33.509 4.7949 9.7887 10.966 19.044 13.304 29.839 1.3701 5.7744-0.67 11.006-2.2767 16.475-1.6627 5.5111-5.4534 10.759-11.42 11.98-3.7077 0.73-8.5562 1.1338-11.195-2.1411-2.417-3.42 1.1479-6.9979 1.3574-10.48-0.8924-2.8113-4.4707-4.8503-7.3564-3.8765-2.5693 1.0826-5.125 3.217-6.2526 5.7937 0.01 3.924 3.3122 6.8689 5.7088 9.6235 3.8726 4.3324 9.6642 7.3123 15.581 6.1894 5.4958-0.6216 10.212-3.6051 13.969-7.4079 8.3523-7.4932 11.929-18.199 10.984-29.278-1.153-13.655-9.4204-24.862-15.867-36.438-5.1743-9.1373-9.6441-20.303-7.1018-30.966 1.4288-7.7214 7.9687-15.108 16.119-15.506 3.249-0.011 7.3134 0.084 9.4182 2.9166 2.0498 3.2895-1.3035 6.3212-2.0517 9.3875-1.2138 2.3648 1.2305 4.5242 3.4072 4.902 3.4896 1.1578 8.6535-0.41 8.6932-4.6721 0.1186-4.9534-3.5023-9.1169-6.9865-12.24-5.7081-5.0342-14.514-5.7997-21.174-2.1768-6.7345 3.5151-12.288 10.18-15.616 16.934m155.2-241.03c-4.7511 5.8416-8.5583 13.622-8.9422 21.209-0.513 7.5644 3.8239 15.221 10.781 18.306 4.2924 1.8624 9.6198 3.4435 14.072 1.2686 3.8567-1.8147 3.1576-7.1335 0.6496-9.8219-1.2514-1.8207-4.2178-3.1522-5.886-1.0827-2.4983 1.9288-3.8381 6.2838-7.6767 5.747-3.4437-0.7726-5.2554-4.3453-6.6011-7.3026-3.0396-7.5727 1.1248-16.83 7.6015-21.27 8.7133-6.6517 20.534-7.1026 30.996-6.2063 13.209 1.0366 26.62 4.0089 39.572-0.467 10.513-3.6227 18.618-11.449 22.093-22.118 1.9586-4.9738 2.7022-10.574 1.0488-15.852-1.3649-5.8653-6.4321-9.9577-11.96-11.748-3.4883-1.0783-7.5846-2.795-11.157-1.1708-1.8752 2.0965-2.7705 5.2931-2.687 8.08 0.3141 3.0293 3.6563 5.4358 6.5841 5.0787 3.0798-1.6381 4.8673-6.3505 8.9825-5.5735 4.0752 1.0389 5.7228 5.6167 6.5999 9.2924 1.3688 5.934-1.8411 11.544-6.162 15.348-4.3056 3.7349-8.2439 7.7236-14.065 8.8805-10.789 2.3663-21.814 0.5632-32.71 0.2811-11.488-0.341-23.902-0.5926-34.6 4.2799-2.3254 1.1549-4.8129 2.8746-6.5329 4.8419m347.96-241.87c-2.4428 0.9284-4.9178 2.6542-6.8097 4.4323-8.2911 8.3348-12.374 20.05-16.056 30.937-3.5313 10.312-5.6863 21.277-11.667 30.563-3.1143 5.0519-8.2294 7.3649-13.232 10.096-5.0729 2.7213-11.45 3.7793-16.532 0.424-3.1377-2.1057-6.852-5.2484-6.4017-9.4299 0.7089-4.1273 5.7456-4.1642 8.3559-6.4783 1.3568-2.6188 0.2685-6.591-2.4605-7.9429-2.5824-1.0512-5.8847-1.3214-8.5042-0.2967-2.7696 2.7799-2.5858 7.227-2.7945 10.872-0.2542 5.8052 1.8094 11.983 6.828 15.312 4.3676 3.3935 9.8727 4.6418 15.217 4.5438 11.211 0.4709 21.379-4.4209 28.44-13.01 8.7118-10.578 10.606-24.189 14.234-36.932 2.8021-10.12 7.3374-21.032 16.605-26.887 6.4153-4.528 16.543-5.1954 22.587 0.2864 2.3057 2.2894 5.0257 5.2299 4.5535 8.7274-0.8305 3.7859-5.3831 3.5194-8.0599 5.1912-2.5206 0.8448-2.3033 4.0891-1.0312 5.8953 1.6488 3.2863 6.3982 5.7998 9.4399 2.8141 3.5864-3.4186 3.9596-8.9523 3.7042-13.624-0.4765-7.596-6.1509-14.334-13.422-16.482-7.2474-2.2766-15.865-1.4326-22.994 0.9901m280-61.486c-7.4901 0.771-15.68 3.6437-21.316 8.737-5.7116 4.986-8.0561 13.498-5.3182 20.599 1.7183 4.3521 4.3649 9.2058 9.0508 10.816 4.0105 1.4438 7.2746-2.8428 7.4022-6.5173 0.4026-2.1722-0.7729-5.2253-3.4121-4.9089-3.1353-0.364-7.1391 1.7421-9.4741-1.3518-1.8887-2.9813-0.6429-6.7887 0.4967-9.8314 3.2052-7.504 12.691-11.168 20.41-9.7278 10.865 1.4577 19.54 9.4341 26.304 17.466 8.6071 10.073 16.227 21.729 28.624 27.569 10.055 4.7476 21.317 5.1191 31.254-0.092 4.8752-2.1925 9.3141-5.5781 11.816-10.511 3.1188-5.1515 2.3501-11.619-0.3567-16.761-1.744-3.2078-3.3497-7.3333-7.0241-8.7107-2.8084 0.1565-5.7026 1.8153-7.6146 3.845-1.9196 2.3641-1.2583 6.4291 1.0645 8.2469 3.336 1.0194 7.9337-1.0804 10.294 2.379 2.1469 3.6162 0.076 8.0183-1.9033 11.238-3.228 5.1639-9.4659 6.8927-15.211 6.5267-5.6855-0.4036-11.293-0.3047-16.227-3.6026-9.3022-5.9557-15.822-14.963-23.328-22.868-7.8818-8.3641-16.769-17.37-27.83-21.354-2.471-0.7971-5.0949-1.3624-7.7023-1.1875m417.28 73.851c-2.3838-1.0708-5.3674-1.5724-7.9625-1.6529-11.756 0.031-22.949 5.486-33.251 10.581-9.7888 4.7948-19.089 11.082-29.884 13.42-5.7743 1.3701-11.047-0.5525-16.516-2.1592-5.5113-1.6628-10.779-5.3945-12-11.361-0.7299-3.7077-1.0715-8.4973 2.1709-11.176 3.3904-2.4586 6.991 1.129 10.475 1.2959 2.8001-0.9266 4.8454-4.4872 3.8717-7.3728-1.0827-2.5693-3.2372-5.0662-5.8141-6.1938-3.9239 0.01-6.948 3.3114-9.6732 5.7414-4.2847 3.9252-7.1942 9.7527-5.999 15.655 0.6887 5.488 3.7081 10.234 7.5566 13.944 7.5944 8.2602 18.275 11.903 29.342 10.823 13.64-1.3195 24.637-9.6917 36.213-16.138 9.1371-5.1744 20.084-9.7403 30.778-7.328 7.7381 1.3344 15.396 7.9667 15.794 16.117 0.012 3.2492-0.1435 7.2522-2.9505 9.3914-3.2642 2.0898-6.308-1.2896-9.383-2.0003-2.3796-1.1849-4.52 1.2627-4.8977 3.4394-1.1579 3.4897 0.4361 8.5971 4.6981 8.6368 4.9533 0.1185 9.1613-3.5242 12.242-7.0462 4.9642-5.7691 5.7973-14.454 2.1743-21.114-3.5148-6.7345-10.23-12.174-16.984-15.502m241.9 153.83c-5.8415-4.751-13.705-8.4631-21.292-8.8472-7.5644-0.513-15.261 3.872-18.347 10.829-1.8624 4.2924-3.403 9.5716-1.2282 14.024 1.8149 3.8569 7.2334 3.1815 9.8906 0.6405 1.8051-1.2738 3.0997-4.2565 1.0099-5.899-1.9596-2.4744-6.2842-3.8151-5.795-7.6602 0.7301-3.4529 4.2803-5.3084 7.2207-6.6905 7.5346-3.133 16.749 1.0263 21.268 7.4475 6.7591 8.6305 7.4064 20.595 6.5102 31.058-1.0366 13.209-3.847 26.794 0.7893 39.689 3.7528 10.467 11.522 18.627 22.233 21.97 4.9976 1.8968 10.554 2.6202 15.811 0.9017 5.848-1.4374 9.8771-6.555 11.599-12.105 1.0351-3.5015 2.7541-7.6681 1.0857-11.22-2.1196-1.8491-5.2318-2.6332-8.0187-2.5497-3.0292 0.3141-5.4358 3.6563-5.0787 6.5841 1.6381 3.0798 6.3971 4.8245 5.62 8.9398-1.0389 4.0752-5.6167 5.7228-9.2923 6.5998-5.9341 1.3689-11.378-1.6348-15.235-5.9082-3.7879-4.259-7.9737-8.3672-9.1306-14.188-2.3663-10.789-0.6521-21.724-0.3701-32.62 0.341-11.488 0.3601-24.071-4.6444-34.709-1.1836-2.3108-2.6388-4.5656-4.6061-6.2856m243.81 346.61c-0.9284-2.4428-2.7121-4.8951-4.4902-6.787-8.3348-8.291-20.153-12.514-31.084-16.063-10.354-3.4054-21.219-5.4847-30.577-11.351-5.0895-3.0525-7.5442-8.3843-10.275-13.387-2.7213-5.0729-3.7139-11.218-0.4208-16.34 2.0672-3.1633 5.1645-6.9153 9.351-6.5164 4.1358 0.6588 4.1724 5.7267 6.5181 8.3085 2.6352 1.3248 6.5938 0.1881 7.9123-2.5572 1.0196-2.595 1.3324-5.7892 0.3077-8.4087-2.7798-2.7696-7.2824-2.5575-10.928-2.7662-5.8053-0.2542-11.983 1.8094-15.312 6.8281-3.3936 4.3675-4.5866 9.844-4.4886 15.189-0.4709 11.211 4.5889 21.298 13.178 28.359 10.578 8.7119 24.359 10.53 37.103 14.157 10.12 2.802 21.147 7.2908 27.002 16.558 4.528 6.4153 5.3116 16.498-0.1703 22.543-2.2894 2.3056-5.2299 5.0257-8.7274 4.5535-3.7859-0.8305-3.5776-5.3615-5.2495-8.0383-0.8448-2.5206-4.0889-2.303-5.8951-1.0309-3.2863 1.6488-5.7432 6.5252-2.7206 9.5303 3.4621 3.5445 8.9349 3.8746 13.604 3.5623 7.5896-0.5691 14.32-6.1214 16.468-13.393 2.2765-7.2474 1.3164-15.821-1.1063-22.95m63.016 279.3c-0.8636-7.4799-3.6936-15.645-8.8561-21.218-5.0561-5.6497-13.516-7.7821-20.618-5.0442-4.3521 1.7183-9.1966 4.4587-10.749 9.1641-1.3943 4.028 2.8607 7.2453 6.5365 7.3274 2.177 0.3758 5.2016-0.8179 4.8852-3.4571 0.364-3.1353-1.7772-7.1386 1.2876-9.5115 2.9578-1.9254 6.7802-0.7273 9.8367 0.3746 7.5431 3.1124 11.18 12.564 9.8357 20.301-1.3233 10.882-9.3365 19.662-17.284 26.525-9.9658 8.7312-21.582 16.259-27.422 28.656-4.7476 10.055-4.7469 22.44 0.8299 32.176 2.3724 4.7903 6.0142 9.3314 11.065 11.586 5.2998 2.8597 11.722 1.7707 16.723-1.1876 3.1174-1.9008 7.1583-3.7081 8.3518-7.4462-0.2955-2.7972-2.0431-5.4892-4.1424-7.324-2.4339-1.8307-6.4715-1.0183-8.2016 1.3705-0.8946 3.3717 1.4147 7.8808-1.9235 10.41-3.5053 2.3236-8.0046 0.4724-11.318-1.3445-5.3175-2.9682-7.2935-9.3778-7.1414-15.132 0.1918-5.6966 0.029-11.82 3.2652-16.794 5.8398-9.3753 14.912-16.01 22.723-23.613 8.2657-7.9848 17.196-16.698 21.18-27.759 0.7971-2.4709 1.344-5.4544 1.1369-8.0594m-167.19 549.24c-53.047-53.15-28.594-82.97-21.729-101.9-29.125 36.384-11.07 59.394-13.355 64.823-4.2999-3.7548-42.602-41.727-21.352-94.268 6.3456-13.035 7.9293-16.903 15.938-23.36 7.5271-6.1207 19.005-9.1397 30.48-8.1009 24.646 2.6223 19.995 29.386 3.0135 28.729-4.7435-0.2526-6.8316-5.4058-5.8205-7.9097 1.0161-2.5019 1.7565-4.1656 3.4347-6.2996-1.3218 0.6083-2.7559 1.1165-3.77 2.2105-13.429 14.437 13.486 27.319 23.406 8.3332 7.4389-15.672-4.426-27.834-20.48-29.384-10.279-1.1866-19.742-0.627-28.811 4.1585-11.119 5.8726-17.586 12.001-23.363 23.387-6.9725 13.743-7.7793 24.736-7.3975 38.481v-0.01c0.5336 26.762 15.271 45.129 30.25 66.502 0.4075 0.6495 1.0903 1.2383 0.9905 2.0796-12.686-5.5225-21.269-15.78-28.593-12.237-0.8539 1.0388 0.897 5.6947 4.7848 9.0683 5.5636 4.734 16.443 9.9991 17.901 12.904-12.863-1.1124-52.255-22.752-93.355 7.3012-34.329 25.145-30.683 50.24-19.849 70.628 10.03 19.259 32.873 20.907 38.774 2.5721 5.2309-13.403-12.549-27.036-20.196-12.976-0.5771 1.4279-0.6898 2.3664-0.092 3.906 1.608-1.6069 1.832-3.2039 3.7478-4.5193 7.3028-5.3306 16.026 4.8839 10.465 14.416-5.9877 9.4896-23.323 11.95-30.465-9.2711-11.484-35.147 15.158-56.234 40.352-66.985 30.063-12.933 64.085-2.2483 68.046-0.02-8.632 3.9183-31.876-0.8767-53.19 35.098-0.8159 1.6311-1.7695 3.3576-1.5511 5.2463 1.052-2.3155 2.8821-4.1082 4.3854-6.1135 37.738-49.047 81.778-19.42 97.4-16.491l0.0001-0.0001m-562.34 382.84c0.073-75.093 37.753-78.653 55.887-87.407-46.255 5.6976-49.029 34.127-54.484 36.35-0.3855-5.6955-1.6631-58.807 50.24-81.568 13.645-4.8971 18.792-6.832 29.021-5.7351 9.6505 0.9944 18.856 7.3542 26.343 16.112 15.807 19.09-5.7024 34.63-17.246 22.158-3.1755-3.5328-1.8481-8.3206 0.6243-9.4064 2.4747-1.0808 5.0302-2.0351 7.7257-2.3573-1.3647-0.5045-2.7381-1.1593-4.2288-1.1028-19.704 0.7126-9.7818 28.854 10.658 22.443 16.342-5.8216 16.53-22.87 6.2738-35.318-6.4295-8.1076-13.494-14.345-23.291-17.374-12.015-3.7097-20.891-3.8613-33.027 0.1052-14.648 4.7872-22.956 12.11-32.406 22.099l0.01-0.01c-18.547 19.301-21.083 42.831-25.605 68.535-0.1712 0.7474-0.1048 1.6466-0.7702 2.1709-5.065-12.875-3.8745-26.167-11.559-28.841-1.3382 0.1307-3.3924 4.6611-3.0288 9.7956 0.5865 7.2815 4.0041 18.792 3.0192 21.89-8.4292-9.7793-21.617-53.382-72.022-60.574-42.131-5.9755-57.117 13.814-63.598 35.973-6.269 20.789 9.4913 37.92 26.628 29.128 13.176-5.7786 10.244-27.991-5.1051-23.456-1.4176 0.6016-2.159 1.217-2.825 2.7283 2.2733 0 3.559-1.0015 5.8437-0.5769 8.9333 1.3946 7.14 14.71-3.4971 17.65-10.913 2.6113-24.235-8.0355-14.28-28.091 16.732-32.973 50.458-29.295 75.876-19.082 30.403 12.113 46.884 43.602 48.109 47.978-8.8744-3.3331-21.891-22.974-62.401-12.607-1.7303 0.5766-3.6255 1.123-4.8065 2.6129 2.3812-0.8934 4.1803-0.7478 6.6567-1.1334 61.263-8.7513 72.29 43.79 81.266 56.907h0.0001m-668.71-125.01c53.15-53.047 82.439-29.136 101.45-22.503-36.736-28.678-59.317-10.708-64.774-12.926 3.7019-4.3456 40.965-42.682 93.761-22.076 13.112 6.1861 16.908 7.9105 23.462 15.84 6.2121 7.4519 9.314 19.019 8.4151 30.506-2.3215 24.676-28.558 20.54-27.902 3.5582 0.2526-4.7435 4.59-7.2184 7.106-6.238 2.5141 0.9856 4.158 1.7689 6.3122 3.4209-0.6243-1.3142-0.2988-2.3808-1.3928-3.3949-14.437-13.429-27.319 13.486-8.3332 23.406 15.672 7.4389 27.885-4.5394 29.435-20.594 1.1866-10.279-0.4942-20.239-5.3899-29.249-6.0077-11.046-10.902-16.866-22.289-22.644-13.742-6.9725-24.855-7.5604-38.6-7.1786h0.01c-26.762 0.5335-45.259 15.485-66.632 30.463-0.6496 0.4075-1.2384 1.0903-2.0797 0.9905 5.5225-12.686 15.079-21.756 11.446-29.037-1.0492-0.8411-4.9379 1.3932-8.3114 5.281-4.7341 5.5636-10.457 16.119-13.344 17.613 0.9547-12.875 22.353-52.88-8.2041-93.607-25.566-34.017-50.297-30.452-70.549-19.366-19.133 10.267-20.06 33.478-1.7256 39.379 13.403 5.2309 27.036-12.549 12.976-20.196-1.4279-0.577-3.0875-1.2868-4.6195-0.6701 1.6266 1.5881 3.9174 2.4101 5.2328 4.3259 5.3307 7.3029-5.3531 15.451-14.954 10.008-9.5629-5.8699-12.19-23.228 8.941-30.632 35.002-11.918 57.338 15.489 68.089 40.683 12.933 30.063 2.3936 63.881 0.1653 67.842-3.9183-8.632 0.2939-32.511-35.941-53.381-1.641-0.7958-2.737-1.2759-4.6256-1.0574 2.3154 1.0519 3.5039 2.4023 5.5277 3.8808 49.508 37.131 20.262 81.928 17.334 97.55l0.0001 0.0001m-386.02-560.07c75.088-0.8466 79.09 37.553 87.844 55.687-5.6977-46.255-34.552-49.467-36.842-54.894 5.6904-0.4552 59.358-1.2725 82.119 50.631 4.8971 13.645 6.4502 17.519 5.4782 27.76-0.8768 9.6619-6.8046 20.013-15.562 27.499-19.09 15.807-34.924-6.2417-22.594-17.936 3.4938-3.2184 8.6402-1.1137 9.726 1.3587 1.0808 2.4746 1.7185 4.18 2.0736 6.8715 0.4879-1.3708 1.4431-1.8839 1.3866-3.3745-0.7126-19.704-29.306-10.297-22.647 10.064 6.0204 16.27 23.19 17.081 35.638 6.8243 8.1076-6.4295 13.933-14.649 16.842-24.482 3.563-12.059 3.8024-21.007-0.3119-33.095-4.9656-14.588-12.124-22.891-22.227-32.218l0.01 0.01c-19.526-18.309-42.738-19.777-68.442-24.298-0.7474-0.1712-1.6466-0.1047-2.1709-0.7701 12.875-5.065 26.046-4.7219 28.626-12.439-0.1472-1.3366-4.5074-2.5-9.6419-2.1363-7.2815 0.5865-18.792 4.004-21.89 3.0191 9.7793-8.4291 53.012-21.555 60.204-71.96 5.9756-42.131-14.252-57.079-36.412-63.56-20.789-6.269-38.042 8.9404-29.039 25.968 5.9409 13.104 28.028 10.897 23.493-4.4513-0.6016-1.4177-1.2733-3.0931-2.7927-3.7403 0.027 2.2732 0.9736 3.5524 0.5773 5.8422-1.2842 8.9498-14.646 8.0568-17.586-2.5803-2.6114-10.913 7.7731-25.042 27.951-15.336 33.178 16.323 29.347 50.161 19.447 75.702-11.738 30.549-43.301 47.468-47.662 48.747 3.224-8.9146 23.123-22.245 12.258-62.624-0.5977-1.7231-1.0644-2.8337-2.5542-4.0147 0.8934 2.3812 0.8101 4.1726 1.1957 6.649 8.7513 61.263-43.484 72.143-56.49 81.279v0.0001m361.51-919.35c29.388 69.103-4.2885 87.778-17.712 102.79 40.584-22.911 32.302-51.091 36.448-55.276 2.5888 5.0878 24.106 54.696-15.185 95.541-10.744 9.7334-13.576 12.744-23.412 15.758-9.2639 2.8809-20.994 1.4122-31.26-3.8172-21.906-11.595-7.6722-34.719 7.8461-27.792 4.309 1.9993 4.33 7.5594 2.4599 9.5075-1.874 1.9442-3.1594 3.2153-5.5108 4.5721 1.4532-0.073 2.9735-0.011 4.3217-0.6499 17.835-8.4075-2.3592-30.375-18.629-16.44-12.733 11.782-6.2023 27.486 8.1274 34.889 9.1028 4.9203 18.05 7.9272 28.248 6.8575 12.505-1.3167 20.709-4.5963 30.311-13.013 11.588-10.158 16.333-20.092 21.103-32.988l-0.01 0.01c9.4824-25.032 2.58-47.641-3.3439-73.059-0.1357-0.7547-0.5496-1.5558-0.1432-2.2991 9.7096 9.8561 13.829 22.554 21.946 21.999 1.1797-0.6453 1.2929-5.6188-1.0556-10.199-3.3958-6.4679-11.055-15.715-11.364-18.951 11.59 5.6892 40.856 40.64 90.04 27.474 41.097-11.037 47.22-35.127 44.465-58.05-2.4119-21.58-23.664-31.147-35.968-16.328-9.8455 10.492 1.5799 29.765 13.912 19.563 1.0672-1.1103 1.5234-1.9619 1.5416-3.6133-2.0906 0.8929-2.8952 2.3139-5.1629 2.8213-8.7627 2.2281-12.346-10.722-3.7195-17.605 9.0086-6.6895 25.472-2.126 24.206 20.229-2.4167 36.897-35.012 46.747-62.398 47.326-32.717 0.7877-60.248-21.722-63.091-25.267 9.4706-0.4151 29.182 12.564 62.372-12.871 1.3651-1.2094 2.8939-2.4561 3.3953-4.2899-1.8393 1.7563-3.559 2.3266-5.6851 3.6529-52.914 32.091-83.694-11.935-97.095-20.48m664.19-147.12c-28.083 69.644-64.36 59.1-84.45 60.469 45.049 11.942 58.724-13.399 64.614-13.5-1.7003 5.4495-20.858 55.267-77.504 57.066-14.488-0.5361-18.597-0.6693-27.742-5.3801-8.6429-4.4068-16.009-13.858-19.706-24.77-7.5841-23.596 18.13-30.069 24.205-14.198 1.6332 4.4606-1.367 8.4262-4.0659 8.5148-2.6991 0.083-5.426 0.018-8.0481-0.6848 1.0792 0.9759 2.1107 2.0945 3.5154 2.5963 18.556 6.6661 19.81-23.147-1.548-24.797-17.335-0.673-23.822 15.113-18.924 30.48 2.9575 9.9158 7.1594 18.305 15.127 24.76 9.7737 7.9116 17.898 11.299 30.639 12.137 15.377 1.0111 25.767-2.783 38.258-8.5292h-0.011c24.405-10.995 35.529-31.987 49.313-54.149 0.4376-0.6296 0.7113-1.4887 1.5243-1.7269-0.1036 13.835-5.3356 25.928 0.8618 31.2 1.295 0.3621 3.9934-3.2152 5.5715-8.1147 2.1724-6.9747 3.2955-18.929 5.365-21.436 4.1723 12.218 0.1931 57.443 44.281 82.912 36.864 21.255 58.291 8.3428 72.552-9.8146 13.554-16.964 5.2717-38.698-13.907-36.919-14.38 0.4568-19.93 22.164-3.9959 23.67 1.5397-0.031 3.3447-0.03 4.5112-1.1992-2.1199-0.8212-4.5495-0.6768-6.5118-1.9215-7.7716-4.6207-1.1492-16.311 9.8177-15.079 11.1 1.6398 19.535 16.449 2.8324 31.362-27.799 24.381-57.883 8.5363-77.657-10.419-23.692-22.578-27.268-57.839-26.772-62.356 6.9902 6.4032 12.49 30.047 54.008 35.024 1.8217 0.088 3.0219 0.1061 4.6732-0.8361-2.5426-0.059-4.1694-0.8411-6.611-1.4069-60.108-14.724-50.782-67.436-54.216-82.955m574.67 363.94c-68.738 30.234-87.429-3.513-102.6-16.75 23.41 40.299 51.147 31.933 55.382 36.026-5.0557 2.6511-54 24.468-95.327-14.315-9.8653-10.623-12.747-13.56-15.883-23.358-2.9953-9.2276-1.5656-21.074 3.5362-31.405 11.322-22.048 34.151-8.5073 27.223 7.011-1.9993 4.309-6.948 5.0131-8.919 3.1673-1.9673-1.8498-3.201-3.1689-4.5869-5.5033 0.091 1.4522-0.6085 2.3015 0.03 3.6497 8.4075 17.835 30.375-2.3592 16.44-18.628-11.782-12.733-27.577-6.1144-34.98 8.2153-4.9203 9.1028-7.067 18.952-5.871 29.136 1.4715 12.488 3.8408 19.606 12.258 29.208 10.158 11.588 21.037 17.351 33.991 21.962l-0.01-0.01c25.147 9.1732 47.031 1.4091 72.449-4.5148 0.7547-0.1357 1.5557-0.5496 2.2991-0.1432-9.8562 9.7096-22.106 14.561-21.452 22.671 0.6597 1.1717 5.1227 0.532 9.7031-1.8166 6.4679-3.3957 15.715-11.054 18.951-11.364-5.6892 11.59-40.324 40.654-27.158 89.838 11.037 41.096 35.51 47.014 58.434 44.259 21.58-2.4119 31.482-23.215 16.513-35.337-10.611-9.7167-30.061 1.0049-19.86 13.337 1.1104 1.0672 2.3863 2.3439 4.0379 2.3419-0.9184-2.0796-2.7384-3.6955-3.2458-5.9632-2.2281-8.7626 10.721-12.346 17.605-3.7204 6.6895 9.0086 2.6894 26.096-19.68 25.103-36.923-1.9665-46.682-34.707-47.595-62.084-1.1879-32.705 21.219-60.661 24.729-63.548 0.5311 9.4648-12.561 29.559 13.278 62.435 1.226 1.3503 2.0887 2.1962 3.9226 2.6977-1.7563-1.8394-2.3803-3.5274-3.7068-5.6539-32.091-52.914 11.715-83.442 20.094-96.947l0.0003 0.0003m135.17 688.12c-7.2607-7.4458-40.721-7.7249-47.766-15.019 1.6563-6.4968 29.951 1.434 47.909 2.2668 1.0658 0.1163 1.7546-0.7698 2.4577-1.404 0.7758-8.5137-6.1167-27.592-18.28-35.392-19.405-11.88-38.794 1.6275-41.283 5.7399 3.6446 1.2253 13.828 2.7372 16.565 7.5302-36.029-2.6951-35.959 3.3005-57.303 8.3779-1.3275 0.4026-2.708-0.091-4.0482 0.1894-0.065 0.3707-0.1337 0.7439-0.207 1.1228 22.014 13.847 18.263 20.375 53.217 31.329-0.048 0.157-0.1434 0.4711-0.1945 0.6273-9.5108 2.9194-14.925 0.7776-18.806 0.052 7.0471 10.718 11.484 17.378 24.874 20.5 17.322 4.7757 35.56-9.2236 42.865-25.92h0.0001m-373.55 558.49c0-10.4-23.295-34.294-23.119-44.433 5.7652-3.4227 20.147 22.167 32.256 35.454 0.6714 0.8358 1.785 0.6963 2.7306 0.745 6.5687-5.4715 15.131-23.912 12.045-38.028-5.3208-22.122-28.564-26.256-33.231-25.108 1.7107 3.4436 7.8603 11.739 6.407 17.063-23.571-27.382-27.725-23.042-46.408-34.544-1.2233-0.654-1.8505-1.9792-2.9965-2.7287-0.3081 0.2161-0.6205 0.4315-0.9403 0.6476 5.7752 25.357-1.4586 27.374 15.512 59.836-0.1448 0.077-0.4345 0.2317-0.5811 0.3061-8.7894-4.6609-11.103-10.004-13.335-13.261-2.5955 12.562-4.1347 20.461 3.1258 32.137 8.8712 15.625 31.645 18.763 48.534 11.914m-658.63 132.64c7.3562-7.3515 7.7774-40.722 15.071-47.767 6.4968 1.6563-1.4224 29.89-2.2552 47.847-0.1163 1.0658 0.7698 1.7546 1.404 2.4577 8.5137 0.7758 27.622-6.3021 35.422-18.466 11.88-19.405-1.6367-38.732-5.7491-41.221-1.2254 3.6447-3.3915 13.721-8.1505 16.517 2.2524-36.06-3.717-36.055-9.0558-57.335-0.4188-1.3224 0.058-2.7089-0.2391-4.0456-0.3714-0.061-0.7455-0.1246-1.1252-0.1932-13.576 22.182-19.082 18.634-30.037 53.588-0.1569-0.048-0.471-0.1433-0.6273-0.1944-2.9193-9.5108-0.7775-14.925-0.052-18.806-10.718 7.0471-18.048 11.439-21.006 24.866-4.5635 17.379 9.6139 35.651 26.399 42.75v0.0002m-560.59-370.3c10.4 0 33.935-23.728 44.076-23.677 3.4932 5.7228-21.758 20.669-35.045 32.778-0.8358 0.6713-0.6963 1.7849-0.7451 2.7305 5.4715 6.5687 24.064 15.021 38.18 11.935 22.122-5.3207 26.205-28.526 25.057-33.194-3.4436 1.7107-12.1 7.3039-17.442 5.916 27.091-23.905 22.815-28.087 34.087-46.909 0.639-1.2312 1.9563-1.8746 2.6916-3.0296-0.2198-0.3055-0.439-0.6153-0.659-0.9324-25.285 6.0858-27.272-1.2005-59.524 16.166-0.079-0.1439-0.2371-0.4316-0.3132-0.5773 4.5529-8.8459 10.325-10.567 13.582-12.799-12.562-2.5954-20.877-4.6563-32.463 2.7465-15.515 9.0617-18.332 31.956-11.483 48.845m-136.47-657.85c7.3514 7.3562 40.805 7.2234 47.939 14.43-1.5765 6.5167-29.974-1.0681-47.941-1.6805-1.0671-0.1032-1.7449 0.7914-2.4402 1.4341-0.6713 8.5226 6.4306 27.511 18.689 35.161 19.55 11.641 38.78-2.1027 41.217-6.2453-3.6595-1.1805-13.852-2.5655-16.648-7.3245 36.06 2.2525 35.931-3.7377 57.211-9.0765 1.3225-0.4188 2.709 0.058 4.0456-0.2391 0.061-0.3714 0.1246-0.7454 0.1933-1.1252-22.182-13.576-18.496-20.145-53.582-30.67 0.046-0.1576 0.1376-0.4728 0.1867-0.6297 9.4744-3.0356 14.914-0.9603 18.804-0.2826-7.1778-10.63-11.681-17.232-25.108-20.19-17.379-4.5635-35.467 9.6529-42.567 26.438h-0.0001m127.78-317.74c3.9948 9.602 34.972 22.221 38.823 31.603-3.9402 5.4247-27.445-12.141-43.731-19.752-0.9411-0.5135-1.8728 0-2.7606 0.3288-3.8676 7.6241-4.5463 27.883 3.8711 39.628 13.637 18.213 36.658 12.834 40.49 9.933-2.9335-2.486-11.825-7.652-12.597-13.117 32.481 15.822 34.655 10.234 56.364 13.404 1.3822 0.1165 2.4826 1.0853 3.8316 1.3202 0.1974-0.3204 0.3991-0.6419 0.6073-0.9668-15.338-21.002-9.4192-25.669-37.849-48.766 0.1024-0.1282 0.3072-0.3847 0.4125-0.511 9.9163 0.8024 13.702 5.4547 17.014 7.6038-2.4328-12.594-3.7496-21.077-15.037-28.928-14.329-10.84-36.48-4.5953-49.439 8.2196h-0.0003m553.96-380.24c-3.8469 9.6622 8.9715 40.475 5.0607 49.832-6.622 1.0496-10.532-28.055-16.872-44.877-0.3146-1.0249-1.4012-1.3068-2.2618-1.7016-8.1259 2.6562-22.908 16.592-25.261 30.849-3.236 22.521 16.838 34.966 21.599 35.625-0.3164-3.8321-2.9575-13.802 0.3613-18.213 11.78 34.156 17.254 31.681 30.362 49.273 0.895 1.0598 0.9889 2.5228 1.7767 3.6427 0.3662-0.087 0.7361-0.1715 1.113-0.2542 4.0056-25.696 11.477-24.872 7.7061-61.308 0.163-0.018 0.4899-0.055 0.6536-0.07 6.4445 7.5793 6.619 13.399 7.4886 17.25 7.0543-10.713 11.405-17.46 8.975-30.992-2.467-17.798-22.477-29.179-40.701-29.057v0.0002m660.88 120.95c-9.5524 4.1121-22.277 34.964-31.659 38.814-5.4247-3.9402 12.375-27.258 19.786-43.636 0.5023-0.9471-0.067-1.9149-0.3962-2.8026-7.624-3.8676-27.979-4.3858-39.724 4.0316-18.213 13.637-12.802 36.604-9.9015 40.437 2.486-2.9335 7.684-11.878 13.149-12.65-15.822 32.481-9.3512 35.215-12.256 56.961-0.1 1.3836-1.055 2.4957-1.2733 3.8474 0.3228 0.1936-0.4877-0.3191-0.1628-0.111 21.002-15.338 25.737-9.5237 48.835-37.954 0.1282 0.1024 0.3849 0.3074 0.5113 0.4127-0.8025 9.9163-4.7938 14.155-6.9021 17.493 12.563-2.5869 20.99-3.9493 28.701-15.332 10.664-14.461 4.2644-36.71-8.7082-49.51m383.39 551.72c-9.6623-3.8469-40.291 9.5018-49.694 5.7059-1.1307-6.6086 27.857-11.163 44.679-17.504 1.0249-0.3146 1.3068-1.4013 1.7016-2.2619-2.6562-8.1259-16.774-22.863-31.03-25.215-22.521-3.236-34.906 16.822-35.564 21.584 3.8321-0.3164 13.943-2.313 18.394 0.9517-34.009 12.196-31.603 17.675-49.034 30.998-1.0488 0.9078-2.5107 1.0187-3.6209 1.8202 0.091 0.365 0.1806 0.7338 0.2678 1.1097 25.744 3.6908 24.874 11.204 61.26 6.9865 0.02 0.1628 0.061 0.4885 0.078 0.6521-7.4998 6.5368-13.511 6.0053-17.362 6.8749 10.713 7.0543 17.665 12.044 31.167 9.4475 17.766-2.6853 28.881-22.924 28.759-41.149h-0.0001m3.2038 324.28c0-0.0004 0 0-0.01-0.01v0.01m-0.01-0.01c-8.3331-18.334-14.581-19.293-34.414-34.063-32.177-24.096-39.963-35.338-44.184-51.886-0.3157-1.2804-0.5036-2.0705-2.2115-2.1693-1.8183 6.4148 2.6754 20.419 2.7028 20.85-12.551-14.454-22.388-45.955 10.489-60.083 19.474-7.9358 29.354 5.581 28.262 14.203-1.4043 6.7694-9.3051 8.2944-13.262 6.935-5.2514-1.6632-3.3574-7.6668-3.3759-9.5219-1.5311 0.7248-2.0291 2.4306-2.7337 3.8322-5.6719 11.211 16.38 16.193 23.189 6.0951 11.16-16.964-8.4813-40.931-40.449-25.078-25.662 13.645-24.218 37.373-14.475 57.587 9.505 19.669 18.133 22.024 55.632 46.047 24.085 15.31 31.477 24.038 34.831 27.253m-346.66 569.5v-0.01 0.01s-0.0003 0.0001-0.0003 0.0001m0-0.01c7.0718-18.856 3.2753-24.028-0.3055-48.496-5.7145-39.791-4.0905-52.44 4.4438-67.234 0.6682-1.137 2.0095-2.6392 0.8718-3.9167-5.8218 3.2502-12.505 16.378-12.79 16.702 1.3459-19.096 16.536-48.466 49.774-35.208 19.382 8.1591 16.241 25.177 9.4384 30.587-5.7322 3.865-11.898-1.2286-13.735-4.9881-2.5372-4.8894 2.3495-7.1412 3.6317-8.482-1.6021-0.5504-2.4392-0.3542-3.9285 0.1386-11.938 3.9171 0.1319 23.032 12.087 20.707 19.887-4.1038 22.901-34.985-10.913-46.38-27.795-8.4974-43.423 9.4414-50.828 30.624-7.1873 20.629-2.6724 28.493 6.8568 71.996 6.2052 27.856 5.2978 39.305 5.396 43.95m-647.36 159.47s0.01 0 0.01-0.01h-0.01v-0.0002m0.01-0.01c18.334-8.333 19.319-14.767 34.088-34.601 24.096-32.177 34.202-40.13 50.697-44.556 1.2764-0.3315 3.2871-0.4453 3.3858-2.1531-6.4147-1.8184-20.428 2.801-20.858 2.8284 14.454-12.551 45.972-22.767 60.1 10.111 7.9358 19.474-6.3196 29.318-14.954 28.334-6.7863-1.3203-7.5453-9.2503-6.1859-13.208 1.6632-5.2514 6.7117-3.4199 8.5664-3.4613-0.7437-1.522-2.4556-1.9988-3.8657-2.686-11.281-5.5326-15.204 16.418-5.1061 23.226 16.964 11.16 40.933-8.6078 25.08-40.575-13.645-25.662-37.389-23.84-57.604-14.097-19.669 9.505-22.05 18.383-46.073 55.882-15.31 24.085-24.056 31.601-27.271 34.955m-571.6-343.44s0.01 0.0004 0.01 0h-0.01l-0.0002-0.0003m0.01 0c18.942 6.8395 24.246 3.2778 48.714-0.3029 39.791-5.7146 52.681-4.293 67.474 4.2414 1.137 0.6683 2.6392 2.0095 3.9166 0.8717-3.2502-5.8217-16.473-12.422-16.796-12.708 19.096 1.3459 48.745 16.28 35.487 49.519-8.1591 19.382-25.222 16.285-30.632 9.4826-3.8651-5.7323 1.1827-11.855 4.9423-13.692 4.8893-2.5372 7.1869 2.3059 8.5277 3.5881 0.5504-1.6021-0.3229-3.1497-0.8341-4.6327-4.0648-11.889-22.383 0.8797-20.057 12.835 4.1038 19.887 34.664 22.076 45.638-11.877 8.1518-27.898-9.657-43.596-30.93-50.739-20.716-6.932-28.301-2.5005-71.683 7.5635-27.778 6.5475-39.124 5.6946-43.768 5.8499m-163.13-646.45c0 0.0003 0 0 0.01 0.01v-0.01h0.0001m0.01 0.01c8.5578 18.23 14.792 19.109 34.806 33.633 32.472 23.698 40.36 34.836 44.786 51.332 0.3315 1.2764 0.52 2.0626 2.2289 2.1402 1.7389-6.4367-3.0026-19.191-3.0299-19.621 12.551 14.454 22.986 44.476-9.7134 59.011-19.375 8.1768-29.401-5.2153-28.416-13.85 1.3204-6.7863 9.2016-8.4091 13.176-7.0988 5.2716 1.598 3.4522 7.6246 3.4936 9.4793 1.522-0.7436 1.9988-2.4555 2.686-3.8657 5.5325-11.281-16.579-15.989-23.263-5.8073-10.949 17.101 8.9687 40.821 40.737 24.573 25.491-13.963 23.809-37.662 13.818-57.754-9.7471-19.55-18.369-21.791-56.161-45.351-24.272-15.012-31.754-23.646-35.147-26.82m113.23-320.44v0.01s-0.0002-0.01 0-0.01m533.07-400.42h0.0002-0.0002m0.0002 0l-0.01 0.01 0.01-0.01h-0.0002m-0.01 0.01c-13.542 14.906-11.941 21.087-17.666 45.144-9.4106 39.082-15.668 50.227-29.077 60.804-1.042 0.8084-2.8443 1.7066-2.261 3.3147 6.6118-0.8615 17.714-10.585 18.099-10.78-8.3209 17.24-33.434 38.937-59.374 14.286-14.967-14.772-5.7221-29.418 2.6018-31.917 6.7572-1.4618 10.604 5.5462 10.915 9.719 0.5427 5.4817-4.8438 5.7695-6.532 6.5387 1.2835 1.1056 2.1472 1.2249 3.713 1.3196 12.54 0.7904 8.4206-21.439-3.5444-23.713-19.99-3.565-34.27 24.003-7.1042 47.138 22.653 18.21 43.943 7.2973 58.664-9.6381 14.315-16.502 13.082-25.462 20.317-69.405 4.5372-28.176 9.6216-38.459 11.248-42.812m660.35 91.858h-0.01c0-0.0001 0.01 0 0.01 0m-0.01 0c-20.116 0.9646-23.401 6.5488-44.459 19.512-34.29 20.981-46.665 24.576-63.626 22.574-1.3084-0.1652-3.2179-0.8045-3.9426 0.7452 5.2844 4.066 20.037 4.9844 20.447 5.1184-18.074 6.3067-51.25 4.0618-52.162-31.711-0.1378-21.029 16.767-24.877 24.42-20.758 5.8117 3.7444 3.5887 11.391 0.8584 14.562-3.4924 4.2599-7.517 0.6831-9.2546 0.033 0.1257 1.6893 1.5386 2.7674 2.593 3.9288 8.4223 9.3238 20.225-9.604 13.373-19.673-11.614-16.656-40.563-6.7166-37.279 28.814 3.4937 28.854 24.889 35.614 47.274 34.048 21.791-1.5463 27.312-8.8646 63.501-34.821 23.132-16.715 34.029-20.446 38.256-22.373m403.58 530.85v0.0002-0.0002m0 0.0002l-0.01-0.01 0.01 0.01v-0.0002m-0.01-0.01c-15.071-13.359-21.298-12.021-45.355-17.745-39.082-9.4106-50.523-15.57-61.1-28.979-0.8084-1.042-1.7068-2.845-3.3149-2.2616 0.8615 6.6118 10.703 17.672 10.898 18.057-17.24-8.3209-39.286-33.301-14.635-59.24 14.772-14.967 29.475-5.7468 31.974 2.577 1.4618 6.7572-5.4884 10.58-9.6612 10.892-5.4816 0.5427-5.8269-4.8197-6.5961-6.5079-1.1056 1.2834-0.8692 3.0438-0.9449 4.6107-0.6374 12.548 21.122 7.4994 23.396-4.4656 3.565-19.99-24.019-33.396-46.821-5.95-17.932 22.873-7.1482 44.181 9.9655 58.695 16.675 14.113 25.356 12.857 69.383 19.555 28.229 4.1928 38.44 9.1897 42.812 10.763m-1597.4-222.1c0.9648 20.115 6.3867 23.308 19.349 44.366 20.981 34.29 24.009 47.645 21.8 64.58-0.1811 1.3063-0.3084 2.1235 1.2413 2.8481 4.066-5.2843 5.0966-19.984 5.2305-20.394 6.3068 18.074 3.7216 51.098-32.052 52.009-21.029 0.1377-25.182-16.107-20.97-23.709 3.815-5.7657 11.718-4.2522 14.889-1.5219 4.2599 3.4924 0.6261 7.4924-0.024 9.2301 1.6893-0.1258 2.4129-0.6399 3.5871-1.6801 9.4258-8.308-9.2052-21.114-19.274-14.261-16.656 11.614-7.3169 41.182 28.251 38.331 28.894-3.1417 36.402-25.836 34.837-48.221-1.5463-21.791-8.6444-27.196-34.6-63.385-16.714-23.13-20.337-33.965-22.265-38.193m1602 642.17c-1.24 0.018-2.3864 0.5174-3.5393 0.9147-49.26 17.543-49.703 7.4236-82.235 18.987-23.69 8.4488-42.651 26.028-41.45 51.665 2.0617 24.766 26.714 37.56 41.896 33.755 12.598-2.7572 18.617-14.041 13.799-23.646-3.4691-7.226-13.014-9.1051-18.025-7.486-6.0815 2.2661-4.2867 6.2523-4.8241 10.303 1.4781-0.7869 1.6354-2.5823 2.5378-3.8336 5.7554-8.6108 21.926 1.9609 12.548 13.317-3.1759 3.4284-10.549 6.2613-16.774 4.7418-9.5164-1.6865-31.974-16.403-21.719-41.561 2.2074-6.4215 4.5162-10.141 9.3443-14.992 2.1473-2.2814 9.3058-8.0362 12.148-9.3143-0.9668 2.5773-10.01 13.24-9.1369 17.634 1.8846-0.4544 1.3302-0.1065 6.0023-5.7969 29.172-36.16 86.159-24.42 99.425-44.686h0.0003m-385.61 542.3c-0.8896-0.8639-2.0534-1.3215-3.1494-1.8559-47.237-22.427-40.332-29.789-71.512-44.616-22.726-10.777-48.479-11.588-65.758 7.3892-16.055 18.97-7.6438 45.505 5.7826 53.55 10.858 6.9586 23.053 3.1508 26.439-7.0477 2.6565-7.5627-2.7642-15.641-7.4521-18.039-5.9026-2.6979-7.4389 1.4179-10.683 3.902 1.6016 0.4887 2.9823-0.6696 4.5052-0.9163 10.158-2.019 14.13 16.919-0.5308 18.317-4.6699 0.1785-11.874-3.0037-15.201-8.4795-5.5366-7.9217-12.131-33.407 12.78-44.25 6.0647-3.054 11.548-4.6133 18.392-4.6293 3.1316-0.095 12.234 0.8427 15.147 1.9482-2.5062 1.1389-17.548 2.8706-19.992 6.6251 1.6661 0.9911 2.1072 0.3035 9.4346-0.4164 46.197-4.9416 78.084 43.466 101.79 38.517m-655.96 112.68c-0.033-1.2397-0.3685-2.3459-0.7656-3.4988-17.543-49.26-8.1559-49.909-20.116-82.298-8.7376-23.585-25.077-41.992-50.714-40.791-24.766 2.0617-37.604 26.83-33.799 42.013 2.7572 12.598 14.106 18.442 23.712 13.625 7.226-3.4692 9.1051-13.014 7.486-18.025-2.2661-6.0815-6.2732-4.2282-10.324-4.7656 0.787 1.4781 2.5823 1.6354 3.8337 2.5377 8.6107 5.7555-2.565 21.567-14.034 12.329-3.4669-3.1339-6.3651-10.537-4.9217-16.78 1.5705-9.5362 15.941-31.975 41.223-22.028 6.4479 2.1289 10.151 4.5243 15.061 9.2928 2.3075 2.1193 9.3007 9.5964 10.579 12.438-2.5774-0.9668-14.457-10.319-18.84-9.3924 0.4773 1.8789 0.1014 1.395 5.8483 5.9974 36.514 28.729 25.344 86.327 45.771 99.344v0.0002m-544.47-382.55c0.8529-0.9001 1.2963-2.0693 1.8172-3.1719 21.847-47.508 29.533-40.837 43.978-72.196 10.499-22.856 11.768-47.325-7.2095-64.604-18.97-16.055-46.08-8.398-53.96 5.1254-6.8257 10.942-2.6842 23.684 7.5142 27.07 7.5627 2.6565 15.641-2.7641 18.039-7.4521 2.6979-5.9026-1.4742-7.4123-3.9583-10.656-0.4886 1.6016 0.2692 2.1162 0.5345 3.636 2.1427 10.133-16.682 14.306-18.26-0.337-0.2354-4.6674 2.922-11.939 8.3568-15.332 7.8536-5.6327 33.966-11.378 44.809 13.533 3.054 6.0647 4.0344 10.349 4.134 17.192 0.1331 3.1301-0.1816 13.348-1.2871 16.261-1.1389-2.5062-2.9808-17.49-6.7353-19.934-0.9911 1.6661-0.8872 1.0438-0.078 8.3619 5.5049 46.133-42.933 78.853-37.694 102.5m-116.42-655.15c1.2397-0.033 2.38-0.5466 3.5279-0.9579 49.042-18.145 49.638-8.0229 82.026-19.983 23.585-8.7376 42.372-26.532 40.858-52.152-2.3636-24.739-27.156-37.226-42.291-33.236-12.564 2.9105-18.464 14.259-13.53 23.805 3.557 7.1832 13.124 8.9457 18.115 7.2656 6.0533-2.3401 4.217-6.3015 4.7049-10.358-1.4683 0.8049-1.6037 2.602-2.4908 3.8643-5.65 8.6803-21.941-1.6908-12.702-13.16 3.1339-3.4668 10.479-6.3868 16.722-4.9433 9.5362 1.5704 32.151 16.004 22.204 41.285-2.1289 6.4479-4.4059 10.19-9.1745 15.099-2.1192 2.3075-9.221 8.1441-12.047 9.4569 0.9352-2.589 9.8687-13.354 8.9419-17.736-1.8789 0.4772-1.3357 0.1202-5.9381 5.8671-28.729 36.514-85.905 25.456-98.922 45.882h-0.0002m135.52-310.95c1.1589 0.4414 2.4087 0.4012 3.6268 0.4583 52.256 1.9061 48.954 11.511 83.456 12.799 25.135 0.9118 49.222-8.3083 57.607-32.565 7.2627-23.767-10.908-44.76-26.419-46.857-12.722-2.1122-22.478 6.1146-21.562 16.821 0.5457 7.997 8.7162 13.278 13.97 13.63 6.4883 0.1478 6.2916-4.2076 8.2916-7.7705-1.6644 0.1832-2.4762 1.793-3.7781 2.6209-8.5365 5.8649-19.645-9.9402-6.7257-17.01 4.2206-2.0066 12.109-1.8945 17.326 1.8253 8.2121 5.0959 23.645 27.044 4.8001 46.614-4.429 5.147-7.9369 7.717-14.218 10.436-2.8391 1.3246-12.362 4.9679-15.476 5.0659 1.8766-2.014 14.938-9.4896 15.754-13.894-1.9189-0.2758-1.2706-0.4077-7.7172 3.1491-40.485 22.794-89.116-9.2488-108.93 4.6784m559.16-360.72c0.507 1.1317 1.4195 1.9869 2.2405 2.8886 35.603 38.298 26.457 42.631 49.943 67.938 17.129 18.418 40.663 28.743 63.744 17.52 21.942-11.67 23.935-39.426 14.45-51.877-7.5024-10.49-20.214-11.476-27.136-3.2573-5.2688 6.0406-3.226 15.552 0.2401 19.516 4.4834 4.6924 7.422 1.4421 11.356 0.337-1.3065-1.0473-3.018-0.4832-4.5239-0.8183-10.183-1.8892-6.865-20.952 7.2698-16.815 4.4034 1.5655 9.9015 7.1911 10.96 13.51 2.2034 9.4102-1.0509 35.506-28.206 36.354-6.7644 0.5913-12.421 0-18.785-2.5156-2.9443-1.0709-11.031-5.3273-13.329-7.4321 2.7496-0.131 17.343 3.8444 21.003 1.2612-1.1809-1.5374-1.8452-1.0619-8.9187-3.1053-44.745-12.509-56.445-69.337-80.306-73.502v0.0003m650.87 138.42c-0.4417 1.1587-0.4012 2.4087-0.4583 3.6268-1.9061 52.256-11.363 48.751-12.651 83.253-0.9118 25.135 8.5494 48.932 32.806 57.317 23.767 7.2627 44.846-11 46.943-26.511 2.1122-12.722-6.2418-22.338-16.948-21.421-7.997 0.5458-13.278 8.7157-13.63 13.97-0.1478 6.4883 4.2492 6.2443 7.8121 8.2443-0.1832-1.6644-1.7926-2.4759-2.6204-3.7777-5.8649-8.5366 10.375-19.081 17.604-6.2501 2.0587 4.1955 1.9966 12.139-1.6582 17.402-4.9939 8.2745-26.609 23.813-46.41 5.2112-5.2013-4.3651-7.7245-7.953-10.521-14.2-1.3595-2.8227-5.0761-12.356-5.2124-15.469 2.0369 1.8517 9.5844 14.933 13.999 15.694 0.2521-1.9221 0.4367-1.3316-3.1993-7.7338-23.292-40.201 8.072-89.535-5.8553-109.35m364 557.21v0c-1.124 0.5213-1.9676 1.4428-2.8585 2.2739-37.859 36.07-42.582 27.027-67.599 50.822-18.206 17.354-28.49 39.519-17.267 62.6 11.67 21.941 39.683 24.862 52.015 15.224 10.396-7.6316 11.275-20.984 3.0564-27.907-6.0407-5.2689-15.552-3.2261-19.516 0.2401-4.6924 4.4834-1.3792 7.4191-0.274 11.353 1.0473-1.3065 0.5373-2.0528 0.8539-3.5627 1.7631-10.206 20.793-7.119 16.832 7.0658-1.5109 4.4224-7.1404 9.9941-13.446 11.131-9.3822 2.3197-35.748-1.9712-36.596-29.126-0.5914-6.7645 0.099-11.08 2.5387-17.474 1.0345-2.9572 5.1164-12.323 7.2212-14.62 0.131 2.7497-3.7193 17.331-1.1361 20.991 1.5374-1.1809 1.2191-0.6297 3.1751-7.7279 11.956-44.896 69.128-57.371 73-81.281m-182.08 606.82c0.836-1.2131 1.452-2.5781 1.7696-4.0363 2.5813-11.93-13.903-18.133-20.365-8.356-0.9231 1.3966-1.642 3.1192-2.0713 5.198-0.5268 1.1001 1.0872 5.5015 4.3072 8.6043 5.4642 5.3575 12.736 3.8466 16.359-1.41m-509.43 346.75c1.449-0.2665 1.9263-0.6003 3.1721-1.4222 10.179-6.7359 3.9244-22.833-7.5581-20.489-1.6404 0.3349-3.3668 1.0445-5.1402 2.2109-1.1505 0.4054-3.1153 4.6896-3.0324 9.1605 0.075 7.652 6.2798 11.695 12.559 10.54m-605.78-113.11c1.2131 0.8361 1.8036 0.9114 3.2656 1.2112 11.961 2.4349 18.903-13.344 9.1267-19.806-1.3966-0.9231-3.1192-1.6421-5.198-2.0713-1.1001-0.5269-5.5362 1.1391-8.6389 4.3592-5.3576 5.4641-3.812 12.684 1.4446 16.307m-350.15-508.16c0.2843 1.4455 0.831 2.8397 1.6529 4.0854 6.7359 10.179 22.688 2.7134 20.203-8.7396-0.355-1.6361-0.8196-2.1722-1.986-3.9457-0.4054-1.1504-4.9465-4.2399-9.416-4.1022-7.6506 0.1691-11.686 6.4379-10.454 12.702m327.68-832.6c-1.2282 0.8135-1.5368 1.3037-2.3604 2.5484-6.7211 10.189 5.3468 22.547 14.99 15.886 1.3777-0.9514 2.6875-2.2816 3.8613-4.0501 0.8992-0.8242 1.0273-5.5323-0.8027-9.6124-3.071-7.0092-10.366-8.2978-15.688-4.7724m601.64-133.37c-1.4437-0.2932-2.0149-0.1341-3.4774 0.1637-11.957 2.4523-12.156 19.693-0.6284 21.802 1.6469 0.3013 3.5133 0.2869 5.5939-0.1336 1.2186 0.053 4.6451-3.2161 6.2361-7.3952 2.7847-7.1277-1.4679-13.166-7.7242-14.437m521.31 330.26c-0.8286-1.2182-1.8785-2.2862-3.1232-3.1098-10.189-6.721-21.933 6.404-15.155 15.964 0.9683 1.3658 1.6017 1.6767 3.3702 2.8505 0.8242 0.8992 6.2133 1.96 10.271 0.08 6.971-3.1567 8.2282-10.507 4.6378-15.785"/>
</g>
</svg>
